<svg width="20px" height="15px" viewBox="0 0 20 15" version="1.1" xmlns="http://www.w3.org/2000/svg" xmlns:xlink="http://www.w3.org/1999/xlink">
    <g stroke-width="1" fill-rule="evenodd">
        <g transform="translate(-1149.000000, -1509.000000)">
            <g id="left-arrow" transform="translate(1159.000000, 1516.500000) rotate(-180.000000) translate(-1159.000000, -1516.500000) translate(1149.000000, 1509.000000)">
                <path d="M6.52410322,0.225599566 C6.80605498,-0.0751998555 7.24993848,-0.0751998555 7.53189024,0.225599566 C7.80431659,0.516236846 7.80431659,0.999954835 7.53189024,1.28991464 L2.42183221,6.74156542 L19.2843252,6.74156542 C19.6774066,6.74156542 20,7.0748837 20,7.49424145 C20,7.91359921 19.6774066,8.2577571 19.2843252,8.2577571 L2.42183221,8.2577571 L7.53189024,13.6992457 C7.80431659,14.0000452 7.80431659,14.4844406 7.53189024,14.7744004 C7.24993848,15.0751999 6.80605498,15.0751999 6.52410322,14.7744004 L0.204319768,8.03215754 C-0.0681065892,7.74152026 -0.0681065892,7.25780227 0.204319768,6.96784246 L6.52410322,0.225599566 Z"></path>
            </g>
        </g>
    </g>
</svg>