<svg width="15px" height="12px" viewBox="0 0 15 12" version="1.1" xmlns="http://www.w3.org/2000/svg" xmlns:xlink="http://www.w3.org/1999/xlink">
    <g stroke="none" stroke-width="1" fill="none" fill-rule="evenodd">
        <g transform="translate(-73.000000, -1446.000000)" fill="#8C8C99">
            <g transform="translate(46.000000, 1304.000000)">
                <g transform="translate(16.000000, 130.000000)">
                    <path d="M16.8716929,12.1804797 C17.1254495,11.9398401 17.5249446,11.9398401 17.7787012,12.1804797 C18.0238849,12.4129895 18.0238849,12.7999639 17.7787012,13.0319317 L13.179649,17.3932523 L25.3558926,17.3932523 C25.7096659,17.3932523 26,17.659907 26,17.9953932 C26,18.3308794 25.7096659,18.6062057 25.3558926,18.6062057 L13.179649,18.6062057 L17.7787012,22.9593966 C18.0238849,23.2000361 18.0238849,23.5875525 17.7787012,23.8195203 C17.5249446,24.0601599 17.1254495,24.0601599 16.8716929,23.8195203 L11.1838878,18.425726 C10.9387041,18.1932162 10.9387041,17.8062418 11.1838878,17.574274 L16.8716929,12.1804797 Z"></path>
                </g>
            </g>
        </g>
    </g>
</svg>