<svg width="18px" height="16px" viewBox="0 0 18 16" version="1.1" xmlns="http://www.w3.org/2000/svg" xmlns:xlink="http://www.w3.org/1999/xlink">
    <g stroke="none" stroke-width="1" fill-rule="evenodd">
        <g transform="translate(-78.000000, -348.000000)">
            <g transform="translate(62.000000, 332.000000)">
                <path d="M26.1426484,16 C22.3342422,16 19.1526367,18.7735371 18.4375938,22.4393954 L16.9440859,20.5384567 L16,21.3076806 L18.4176602,24.3846119 C18.5355039,24.5341614 18.710793,24.6153791 18.8897031,24.6153791 C18.9809687,24.6153791 19.0734297,24.5944393 19.1598789,24.55077 L22.7863516,22.7045969 L22.2454023,21.6036654 L19.5805586,22.9599907 C20.0749609,19.7205881 22.8244258,17.2307582 26.1426484,17.2307582 C29.8084258,17.2307582 32.7911875,20.2676713 32.7911875,24 C32.7911875,27.7323287 29.8084258,30.7692418 26.1426484,30.7692418 L26.1426484,32 C30.4750586,32 34,28.4110641 34,24 C34,19.5889359 30.4750586,16 26.1426484,16 Z"></path>
            </g>
        </g>
    </g>
</svg>