<svg width="34px" height="22px" viewBox="0 0 34 22" version="1.1" xmlns="http://www.w3.org/2000/svg" xmlns:xlink="http://www.w3.org/1999/xlink">
    <g stroke="none" stroke-width="1" fill="none" fill-rule="evenodd">
        <g transform="translate(-61.000000, -931.000000)" fill="#D0271E" fill-rule="nonzero" stroke="#F8F5EA" stroke-width="0.5">
            <g transform="translate(62.000000, 930.000000)">
                <g transform="translate(0.000000, 2.000000)">
                    <path d="M32,11.053386 C32,9.3470088 30.5578613,7.95902063 28.7851562,7.95902063 L27.5986328,7.95902063 L24.373291,2.17467928 L20.9768066,2.17467928 L20.9768066,0 L0,0 L0,17.5830631 L2.99926756,17.5830631 C3.40893556,18.9759857 4.74096681,20 6.31762694,20 C7.89428712,20 9.22631837,18.9759857 9.63598631,17.5830631 L22.0161132,17.5830631 C22.4255371,18.9759857 23.7575684,20 25.3344726,20 C26.9111328,20 28.2431641,18.9759857 28.6525879,17.5830631 L32,17.5830631 L32,11.053386 Z M23.251709,3.97927536 L25.4707031,7.95902063 L20.9768066,7.95902063 L20.9768066,3.97927536 L23.251709,3.97927536 Z M6.31762694,18.1954039 C5.449707,18.1954039 4.7438965,17.5158607 4.7438965,16.6807651 C4.7438965,15.8454345 5.449707,15.1658913 6.31762694,15.1658913 C7.18554687,15.1658913 7.89135744,15.8454345 7.89135744,16.6807651 C7.89135744,17.5158607 7.18554687,18.1954039 6.31762694,18.1954039 Z M6.31762694,13.3615301 C4.74096681,13.3615301 3.40893556,14.3855445 2.99926756,15.7784671 L1.875,15.7784671 L1.875,1.80459608 L19.1018066,1.80459608 L19.1018066,15.7784671 L9.63598631,15.7784671 C9.22631837,14.3853094 7.89428712,13.3615301 6.31762694,13.3615301 Z M25.3344726,18.1954039 C24.4665527,18.1954039 23.7604981,17.5158607 23.7604981,16.6807651 C23.7604981,15.8454345 24.4665527,15.1658913 25.3344726,15.1658913 C26.2021484,15.1658913 26.9082031,15.8454345 26.9082031,16.6807651 C26.9082031,17.5158607 26.2021484,18.1954039 25.3344726,18.1954039 Z M28.6525879,15.7784671 C28.2429199,14.3855445 26.9108887,13.3615301 25.3342285,13.3615301 C23.7575684,13.3615301 22.4255371,14.3855445 22.0161132,15.7784671 L20.9768066,15.7784671 L20.9768066,9.76361671 L28.7849121,9.76361671 C29.5239257,9.76361671 30.125,10.3421214 30.125,11.053386 L30.125,11.5569341 L28.6875,11.5569341 L28.6875,13.3615301 L30.125,13.3615301 L30.125,15.7784671 L28.6525879,15.7784671 Z"></path>
                </g>
            </g>
        </g>
    </g>
</svg>