<?xml version="1.0" encoding="UTF-8"?>
<svg width="23px" height="16px" viewBox="0 0 23 16" version="1.1" xmlns="http://www.w3.org/2000/svg" xmlns:xlink="http://www.w3.org/1999/xlink">
    <!-- Generator: Sketch 52.3 (67297) - http://www.bohemiancoding.com/sketch -->
    <title>Shape</title>
    <desc>Created with Sketch.</desc>
    <g id="Page-1" stroke="none" stroke-width="1" fill="none" fill-rule="evenodd">
        <g id="Оформление-заказа-доставка-3" transform="translate(-110.000000, -467.000000)" fill="#FFFFFF" fill-rule="nonzero" stroke="#7263FF" stroke-width="0.1">
            <g id="Group-6-Copy" transform="translate(94.000000, 452.000000)">
                <path d="M38.95,23.8427088 C38.95,22.5058689 37.8012616,21.4172165 36.3879395,21.4172165 L35.3803814,21.3918554 L32.8032989,16.7897434 L29.9936554,16.7397434 L30.0436554,15.05 L16.05,15 L16,29.0164505 L18.4848133,29.0521402 C18.8171453,30.1647265 19.8950125,30.95 21.1330719,30.95 C22.3711314,30.95 23.4489985,30.1647265 23.8292389,29.0164505 L30.9360027,29.052148 C31.2681341,30.1647255 32.3460026,30.95 33.584259,30.95 C34.8223461,30.95 35.9001933,30.1646998 36.2802276,29.0164505 L38.95,29.0664505 L38.95,23.8427088 Z M31.8920136,18.1334203 L31.9355218,18.1587823 L33.6949463,21.4172165 L29.9936554,21.3672165 L30.0436554,18.1334203 L31.8920136,18.1334203 Z M21.1330719,29.6063231 C20.4009234,29.6063231 19.8044159,29.0409856 19.8044159,28.3446121 C19.8044159,27.6480809 20.4008916,27.082713 21.1330719,27.082713 C21.8652522,27.082713 22.4617279,27.6480809 22.4617279,28.3446121 C22.4617279,29.0409856 21.8652203,29.6063231 21.1330719,29.6063231 Z M21.1330719,25.7392241 C19.8950125,25.7392241 18.8171453,26.5244976 18.4369049,27.6727737 L17.4734375,27.6227737 L17.5234375,16.3936769 L28.5702179,16.4436769 L28.5202179,27.6727737 L23.7813298,27.6370818 C23.4490244,26.5243967 22.3712222,25.7392241 21.1330719,25.7392241 Z M33.584259,29.6063231 C32.8520751,29.6063231 32.2554047,29.0409524 32.2554047,28.3446121 C32.2554047,27.6481142 32.8520433,27.082713 33.584259,27.082713 C34.3163083,27.082713 34.912915,27.6481445 34.912915,28.3446121 C34.912915,29.040922 34.3162764,29.6063231 33.584259,29.6063231 Z M36.2802276,27.6727737 L36.2323193,27.637084 C35.8999873,26.5244976 34.8221201,25.7392241 33.5840607,25.7392241 C32.3459736,25.7392241 31.2681264,26.5245243 30.888092,27.6727737 L29.9936554,27.6227737 L30.0436554,22.7608934 L36.3877411,22.7608934 C37.0152205,22.7608934 37.5265625,23.2454637 37.5265625,23.8427088 L37.4765625,24.2955473 L36.3585937,24.2455473 L36.3085937,25.6392241 L37.5265625,25.6892241 L37.4765625,27.6727737 L36.2802276,27.6727737 Z" id="Shape"></path>
            </g>
        </g>
    </g>
</svg>