<?xml version="1.0" encoding="UTF-8"?>
<svg width="12px" height="14px" viewBox="0 0 12 14" version="1.1" xmlns="http://www.w3.org/2000/svg" xmlns:xlink="http://www.w3.org/1999/xlink">
    <!-- Generator: Sketch 52.3 (67297) - http://www.bohemiancoding.com/sketch -->
    <title>security 2</title>
    <desc>Created with Sketch.</desc>
    <g id="Page-1" stroke="none" stroke-width="1" fill="none" fill-rule="evenodd">
        <g id="Страница-товара" transform="translate(-710.000000, -655.000000)" fill="#1FC350" fill-rule="nonzero" stroke="#1FC350" stroke-width="0.3">
            <g id="security-2" transform="translate(711.000000, 656.000000)">
                <g id="security">
                    <path d="M9.94066298,3.07931163 C9.93458564,2.75642791 9.92878453,2.45140465 9.92878453,2.15631628 C9.92878453,1.92513488 9.74331492,1.73771163 9.51441989,1.73771163 C7.74232044,1.73771163 6.39309392,1.2232186 5.26845304,0.118548837 C5.10756906,-0.0395162791 4.85154696,-0.0394604651 4.69071823,0.118548837 C3.56618785,1.2232186 2.21718232,1.73771163 0.44519337,1.73771163 C0.216353591,1.73771163 0.0308287293,1.92513488 0.0308287293,2.15631628 C0.0308287293,2.45146047 0.0250828729,2.75659535 0.0189502762,3.07953488 C-0.0378453039,6.08433488 -0.115635359,10.1995535 4.8438674,11.9362047 C4.8878453,11.9516093 4.93370166,11.9593116 4.97955801,11.9593116 C5.02541436,11.9593116 5.07132597,11.9516093 5.11524862,11.9362047 C10.0751381,10.1994977 9.99745856,6.08416744 9.94066298,3.07931163 Z M4.97961326,11.0964837 C0.726187845,9.53553488 0.790497238,6.11609302 0.847569061,3.09549767 C0.850994475,2.91421395 0.854309392,2.73851163 0.856629834,2.56626977 C2.51629834,2.49549767 3.84348066,1.98742326 4.97961326,0.987572093 C6.11585635,1.98742326 7.44325967,2.49555349 9.10303867,2.56626977 C9.10535912,2.73845581 9.10867403,2.91404651 9.11209945,3.0952186 C9.16911602,6.11592558 9.23337017,9.53547907 4.97961326,11.0964837 Z" id="Shape"></path>
                    <path d="M6.40651934,4.52550698 L4.40657459,6.54580465 L3.55314917,5.68364651 C3.39132597,5.52022326 3.12895028,5.52022326 2.96718232,5.68364651 C2.80535912,5.8471814 2.80535912,6.11218605 2.96718232,6.27566512 L4.11359116,7.43380465 C4.19447514,7.51551628 4.30055249,7.55637209 4.40657459,7.55637209 C4.51259669,7.55637209 4.61867403,7.51551628 4.69955801,7.43380465 L6.99243094,5.11752558 C7.15430939,4.95404651 7.15430939,4.68898605 6.99248619,4.52556279 C6.83071823,4.36208372 6.56834254,4.36202791 6.40651934,4.52550698 Z" id="Path"></path>
                </g>
            </g>
        </g>
    </g>
</svg>