<?xml version="1.0" encoding="UTF-8"?>
<svg width="13px" height="13px" viewBox="0 0 13 13" version="1.1" xmlns="http://www.w3.org/2000/svg" xmlns:xlink="http://www.w3.org/1999/xlink">
    <!-- Generator: Sketch 53.1 (72631) - https://sketchapp.com -->
    <title>Combined Shape Copy</title>
    <desc>Created with Sketch.</desc>
    <g id="Page-1" stroke="none" stroke-width="1" fill="none" fill-rule="evenodd">
        <g id="Личный-кабинет-3" transform="translate(-117.000000, -685.000000)" fill="#9898A8" fill-rule="nonzero" stroke="#9898A8" stroke-width="0.3">
            <g id="Group-15" transform="translate(118.000000, 681.000000)">
                <path d="M5.5,5 C8.53986719,5 11,7.45989648 11,10.5 C11,13.5398887 8.54010352,16 5.5,16 C2.46013281,16 -1.24344979e-14,13.5401035 -1.24344979e-14,10.5 C-1.24344979e-14,7.46011133 2.45989648,5 5.5,5 Z M5.5,15.140625 C8.06489063,15.140625 10.140625,13.065084 10.140625,10.5 C10.140625,7.93508789 8.06508398,5.859375 5.5,5.859375 C2.93510937,5.859375 0.859375,7.93491602 0.859375,10.5 C0.859375,13.0649121 2.93491602,15.140625 5.5,15.140625 Z M7.86951172,11.4206055 C8.07301172,11.5427012 8.13899023,11.8066367 8.01687305,12.0101367 C7.89482031,12.2136152 7.6308418,12.2796152 7.42736328,12.1575195 L5.27892578,10.868457 C5.14950391,10.790791 5.0703125,10.6509277 5.0703125,10.5 L5.0703125,7.0625 C5.0703125,6.82518359 5.26268359,6.6328125 5.5,6.6328125 C5.73731641,6.6328125 5.9296875,6.82518359 5.9296875,7.0625 L5.9296875,10.2567109 L7.86951172,11.4206055 Z" id="Combined-Shape-Copy"></path>
            </g>
        </g>
    </g>
</svg>