<svg width="16px" height="20px" viewBox="0 0 16 20" version="1.1" xmlns="http://www.w3.org/2000/svg" xmlns:xlink="http://www.w3.org/1999/xlink">
    <g stroke="none" stroke-width="1" fill-rule="evenodd">
        <g transform="translate(-261.000000, -464.000000)" fill-rule="nonzero">
            <g transform="translate(245.000000, 452.000000)">
                <g transform="translate(16.000000, 12.000000)">
                    <g>
                        <path d="M14.7093359,8.62199219 C15.4973437,9.16734375 16,9.85433594 16,10.7006641 C16,11.7790234 15.6240234,12.1666797 14.7566797,12.2566797 C14.4486719,16.5939844 11.55,20 8,20 C4.45,20 1.55132812,16.5939844 1.24332031,12.2566797 C0.375664062,12.1666797 0,11.7789844 0,10.7006641 C0,9.85464844 0.50234375,9.16734375 1.29066406,8.62199219 C1.10132812,8.13734375 1,7.505 1,6.66066406 C1,2.36898437 3.48964844,0 8,0 C12.5103516,0 15,2.36898437 15,6.66066406 C15,7.505 14.8983203,8.13734375 14.7093359,8.62199219 Z M8,1 C4.01867188,1 2,2.90433594 2,6.66066406 C2,7.31132812 2.05730469,7.77199219 2.16898437,8.11964844 C3.80234375,7.35601562 6.08,7 8,7 C9.92,7 12.1976563,7.35601562 13.8310156,8.11964844 C13.9426563,7.77199219 14,7.31132812 14,6.66066406 C14,2.90433594 11.9813281,1 8,1 Z M8,19 C10.9973438,19 13.4569922,16.0403516 13.7556641,12.265 C12.4846484,12.1969922 10.6160156,11.9343359 8,11.9343359 C5.38433594,11.9343359 3.51535156,12.1973437 2.24433594,12.265 C2.54300781,16.0403516 5.00265625,19 8,19 Z M14.9476563,11.2006641 C14.9426563,11.1966797 15,11.0723438 15.0000391,10.7007031 C15.0000391,9.10902344 11.3110547,8.00003906 8.00003906,8.00003906 C4.68902344,8.00003906 1.00003906,9.10902344 1.00003906,10.7007031 C1.00003906,11.1053906 1.06769531,11.2170313 1.06835938,11.2180469 C1.06800781,11.2173828 1.06800781,11.2170313 1.06902344,11.2170313 C1.08167969,11.2170313 1.22667969,11.2810156 1.71867188,11.2810156 C2.17,11.2810156 2.74933594,11.2303516 3.48265625,11.1663672 C4.66398438,11.0633594 6.13433594,10.9346875 8,10.9346875 C9.86597656,10.9346875 11.3363281,11.0630469 12.5176563,11.1663672 C13.2509766,11.2303516 13.83,11.2810156 14.2813281,11.2810156 C14.7830078,11.2810156 14.9239844,11.2143359 14.9476563,11.2006641 Z M9.93939394,2.90909091 C10.475,2.90909091 10.9090909,3.34318182 10.9090909,3.87878788 L10.9090909,4.84848485 C10.9090909,5.38409091 10.475,5.81818182 9.93939394,5.81818182 L6.06060606,5.81818182 C5.525,5.81818182 5.09090909,5.38409091 5.09090909,4.84848485 L5.09090909,3.87878788 C5.09090909,3.34318182 5.525,2.90909091 6.06060606,2.90909091 L9.93939394,2.90909091 Z M9.93939394,4.84848485 L9.93939394,3.87878788 L6.06060606,3.87878788 L6.06060606,4.84848485 L9.93939394,4.84848485 Z"></path>
                    </g>
                </g>
            </g>
        </g>
    </g>
</svg>