<?xml version="1.0" encoding="UTF-8"?>
<svg width="32px" height="32px" viewBox="0 0 32 32" version="1.1" xmlns="http://www.w3.org/2000/svg" xmlns:xlink="http://www.w3.org/1999/xlink">
    <!-- Generator: Sketch 52.3 (67297) - http://www.bohemiancoding.com/sketch -->
    <title>fb</title>
    <desc>Created with Sketch.</desc>
    <g id="Page-1" stroke="none" stroke-width="1" fill="none" fill-rule="evenodd">
        <g id="Интерфейс-быстрого-заказа" transform="translate(-140.000000, -602.000000)" fill="#D0271E" fill-rule="nonzero">
            <g id="Group-12" transform="translate(60.000000, 70.000000)">
                <g id="Group-17" transform="translate(32.000000, 471.000000)">
                    <g id="facebook-logo-2" transform="translate(48.000000, 61.000000)">
                        <g id="facebook-logo">
                            <path d="M15.9591837,0 C7.14514286,0 0,7.14514286 0,15.9591837 C0,24.7732245 7.14514286,31.9183673 15.9591837,31.9183673 C24.7732245,31.9183673 31.9183673,24.7732245 31.9183673,15.9591837 C31.9183673,7.14514286 24.7732245,0 15.9591837,0 Z M22.0476735,8.12734694 L19.8403265,8.12832653 C18.1093878,8.12832653 17.7746939,8.95085714 17.7746939,10.1577143 L17.7746939,12.8189388 L21.9023673,12.8189388 L21.9004082,16.987102 L17.7750204,16.987102 L17.7750204,27.6835918 L13.4697143,27.6835918 L13.4697143,16.987102 L9.87069388,16.987102 L9.87069388,12.8189388 L13.4697143,12.8189388 L13.4697143,9.74497959 C13.4697143,6.17763265 15.6493061,4.23477551 18.8313469,4.23477551 L22.048,4.23967347 L22.048,8.12734694 L22.0476735,8.12734694 Z" id="fb"></path>
                        </g>
                    </g>
                </g>
            </g>
        </g>
    </g>
</svg>