<svg width="60px" height="47px" viewBox="0 0 60 47" version="1.1" xmlns="http://www.w3.org/2000/svg" xmlns:xlink="http://www.w3.org/1999/xlink">
    <g stroke-width="1" fill-rule="evenodd">
        <g transform="translate(-709.000000, -2749.000000)">
            <g transform="translate(709.000000, 2749.000000)">
                <path d="M59.611512,28.82514 C60.0246237,29.1576925 60.1220703,29.7523968 59.8371039,30.1989982 L49.3978153,46.5314357 C49.2903675,46.6994727 49.1423698,46.8252873 48.9750836,46.9039662 C48.6762923,47.0444954 48.3153736,47.0349405 48.0126826,46.8478162 L41.7157406,42.9558088 C41.2334848,42.6578112 41.0787585,42.0212501 41.3703449,41.5342755 L42.6509635,39.3946561 C40.2096697,38.3336012 34.5307201,35.5221689 31.6367101,31.2587364 C30.1403896,29.0543312 27.4425081,27.271226 25.062313,25.6982035 C23.9644303,24.972661 22.9178298,24.2806055 22.0285004,23.5791819 C21.0917457,24.4086357 20.042841,25.1011046 18.902992,25.6372047 C12.2826963,28.750899 4.36694234,25.8124082 1.25755781,19.0868564 C-1.85182671,12.3613047 1.00453734,4.35641144 7.62483299,1.24271717 C12.6110298,-1.10241863 18.3312156,-0.0131356232 22.1801271,3.54023728 C22.2768796,3.49473212 22.3801359,3.45977483 22.4921063,3.44691525 L32.1053386,2.35218579 C32.3114359,2.32875497 32.5200917,2.36961146 32.7034858,2.46927342 C32.8907419,2.57106119 37.3320934,4.99670594 40.9448983,7.90563162 C44.1762964,10.5075321 49.7135221,21.8557774 51.319584,25.2400455 L53.1723784,24.3686289 C53.5221679,24.204114 53.9347503,24.2544793 54.2381911,24.4987299 L59.611512,28.82514 Z M26.4525014,12.1087661 C26.6143335,13.6682635 26.5075268,15.2523756 26.1255274,16.787631 C28.6816909,17.4876806 31.3101944,18.8033987 32.7451832,19.5836491 C34.2037966,20.3768228 34.6452813,20.1951231 34.6497743,20.1858887 C34.8525987,19.9850744 34.7935974,18.6639728 34.1697212,17.314538 C33.5744818,16.0270442 32.1805033,13.0118896 31.2206999,12.6556773 C30.4752252,12.3788553 28.170327,12.1906104 26.4525014,12.1087661 Z M19.4193054,19.0494137 C19.5760331,17.991053 20.1322317,17.1926903 21.0278243,16.7404416 C21.0543765,16.7269361 21.0817871,16.7136627 21.1089312,16.7008961 C21.935697,16.312047 22.9834376,16.2462918 24.1202756,16.3816464 C24.7858468,13.8157355 24.5403002,11.0782495 23.4231277,8.6618223 C20.7921175,2.97098687 14.0941602,0.484567294 8.4923874,3.11922424 C2.89061459,5.75388119 0.473686965,12.5272641 3.10469721,18.2180996 C5.73570745,23.908935 12.4336647,26.3953546 18.0354375,23.7606976 C18.9308863,23.3395452 19.7597672,22.8047319 20.5075235,22.1697168 C19.6865926,21.2233745 19.2467855,20.2141371 19.4193054,19.0494137 Z M48.220156,44.559799 L57.6190273,29.8549607 L53.4689801,26.5136696 L51.2690695,27.5483438 C50.7590884,27.788201 50.1513716,27.5626906 49.9117982,27.0444968 C48.009595,22.9303308 42.4633726,11.762442 39.6807728,9.52208946 C36.7152734,7.13440929 33.0467362,5.0192709 32.0225167,4.44385521 L23.8317404,5.37657877 C24.382535,6.11578036 24.867366,6.92186716 25.270116,7.79300933 C25.6040025,8.51520081 25.8721443,9.26170106 26.0736536,10.0230087 C27.2854366,10.0711037 30.645197,10.2436537 31.9134162,10.7143563 C33.5362846,11.3169715 34.7319722,13.666587 36.0168606,16.4457812 C36.6454211,17.8053479 37.3608224,20.440368 36.0546914,21.693049 C34.7032792,22.9896624 32.5087321,21.7965333 31.7879016,21.4046072 C27.4179718,19.0286649 23.3591935,17.8767225 21.9460933,18.592079 C21.7355453,18.6984808 21.5104176,18.8737968 21.4372584,19.3675296 C21.2385011,20.7088918 23.7456561,22.3656452 26.1703709,23.9680868 C28.7102854,25.6466923 31.5892006,27.5492632 33.3159579,30.0931673 C36.6180802,34.958298 44.4143536,37.8944871 44.4927798,37.9236005 C44.7803907,38.0304542 45.0061793,38.2618862 45.1082566,38.5544276 C45.2103822,38.8470735 45.1778578,39.1698583 45.0196973,39.4339771 L43.6443229,41.731722 L48.220156,44.559799 Z" fill-rule="nonzero"></path>
                <path d="M11.988,15.946 L15.138,15.946 L15.138,17.044 L11.988,17.044 L11.988,19.042 L10.35,19.042 L10.35,17.044 L9,17.044 L9,15.946 L10.35,15.946 L10.35,14.614 L9,14.614 L9,13.354 L10.35,13.354 L10.35,7 L13.068,7 C14.5800076,7 15.7439959,7.31499685 16.56,7.945 C17.3760041,8.57500315 17.784,9.50799382 17.784,10.744 C17.784,12.0640066 17.3640042,13.0389968 16.524,13.669 C15.6839958,14.2990031 14.5380073,14.614 13.086,14.614 L11.988,14.614 L11.988,15.946 Z M11.988,8.278 L11.988,13.354 L13.014,13.354 C14.010005,13.354 14.7689974,13.1650019 15.291,12.787 C15.8130026,12.4089981 16.074,11.7340049 16.074,10.762 C16.074,9.88599562 15.8130026,9.25300195 15.291,8.863 C14.7689974,8.47299805 14.0220049,8.278 13.05,8.278 L11.988,8.278 Z"></path>
            </g>
        </g>
    </g>
</svg>