<?xml version="1.0" encoding="UTF-8"?>
<svg width="51px" height="40px" viewBox="0 0 51 40" version="1.1" xmlns="http://www.w3.org/2000/svg" xmlns:xlink="http://www.w3.org/1999/xlink">
    <!-- Generator: Sketch 52.3 (67297) - http://www.bohemiancoding.com/sketch -->
    <title>Combined Shape</title>
    <desc>Created with Sketch.</desc>
    <g id="Page-1" stroke="none" stroke-width="1" fill="none" fill-rule="evenodd">
        <g id="Стартовая" transform="translate(-712.000000, -2784.000000)" fill="#393185" fill-rule="nonzero">
            <g id="Group-50" transform="translate(62.000000, 2756.000000)">
                <g id="Group-49" transform="translate(650.000000, 28.000000)">
                    <g id="Group-48">
                        <path d="M50.6697852,24.5320341 C51.0209301,24.8150574 51.1037597,25.3211888 50.8615383,25.701275 L41.988143,39.6012219 C41.8968124,39.7442321 41.7710143,39.8513083 41.6288211,39.9182691 C41.3748484,40.0378685 41.0680675,40.0297366 40.8107802,39.8704819 L35.4583795,36.5581351 C35.0484621,36.3045202 34.9169447,35.762766 35.1647932,35.3483195 L36.253319,33.5273669 C34.1782193,32.6243415 29.3511121,30.2316331 26.8912036,26.6031799 C25.6193312,24.7270904 23.3261319,23.209554 21.3029661,21.8708115 C20.3697658,21.2533285 19.4801553,20.6643451 18.7242253,20.0673888 C17.9279838,20.7733069 17.0364148,21.3626422 16.0675432,21.8188976 C10.4402919,24.4688502 3.71190099,21.968007 1.06892414,16.2441331 C-1.5740527,10.5202593 0.853856741,3.70758421 6.48110804,1.05763163 C10.7193753,-0.938228625 15.5815333,-0.0111792538 18.853108,3.0129679 C18.9353476,2.97424011 19.0231155,2.94448922 19.1182904,2.9335449 L27.2895378,2.00186024 C27.4647205,1.98191913 27.6420779,2.01669061 27.797963,2.10150929 C27.9571306,2.18813719 31.7322794,4.25251569 34.8031636,6.72819712 C37.549852,8.94258051 42.2564938,18.6006616 43.6216464,21.4808898 L45.1965217,20.7392586 C45.4938427,20.5992459 45.8445378,20.64211 46.1024625,20.8499829 L50.6697852,24.5320341 Z M22.4846262,10.3053328 C22.6221835,11.6325647 22.5313978,12.9807452 22.2066983,14.2873455 C24.3794373,14.8831324 26.6136652,16.0028925 27.8334058,16.6669354 C29.0732272,17.3419768 29.4484891,17.1873388 29.4523082,17.1794797 C29.6247089,17.008574 29.5745578,15.8842321 29.0442631,14.7357771 C28.5383096,13.6400376 27.3534278,11.0739486 26.5375949,10.7707892 C25.9039415,10.535196 23.9447779,10.3749876 22.4846262,10.3053328 Z M16.5064096,16.2122669 C16.6396281,15.3115345 17.1123969,14.6320768 17.8736507,14.2471843 C17.89622,14.2356903 17.919519,14.2243938 17.9425915,14.2135286 C18.6453425,13.8825932 19.535922,13.8266313 20.5022343,13.9418267 C21.0679698,11.7580728 20.8592552,9.42829745 19.9096586,7.37176366 C17.6732999,2.52849946 11.9800362,0.412397697 7.21852929,2.65465893 C2.4570224,4.89692016 0.402633921,10.6615014 2.63899263,15.5047656 C4.87535134,20.3480298 10.568615,22.4641316 15.3301219,20.2218703 C16.0912534,19.8634427 16.7958021,19.4082825 17.431395,18.8678441 C16.7336037,18.0624464 16.3597677,17.2035209 16.5064096,16.2122669 Z M10.1898,13.5710638 L12.8673,13.5710638 L12.8673,14.5055319 L10.1898,14.5055319 L10.1898,16.2059574 L8.7975,16.2059574 L8.7975,14.5055319 L7.65,14.5055319 L7.65,13.5710638 L8.7975,13.5710638 L8.7975,12.4374468 L7.65,12.4374468 L7.65,11.3651064 L8.7975,11.3651064 L8.7975,5.95744681 L11.1078,5.95744681 C12.3930064,5.95744681 13.3823965,6.22552923 14.076,6.76170213 C14.7696035,7.29787502 15.1164,8.09190963 15.1164,9.14382979 C15.1164,10.2672397 14.7594036,11.0970186 14.0454,11.6331915 C13.3313964,12.1693644 12.3573062,12.4374468 11.1231,12.4374468 L10.1898,12.4374468 L10.1898,13.5710638 Z M10.1898,7.04510638 L10.1898,11.3651064 L11.0619,11.3651064 C11.9085042,11.3651064 12.5536478,11.2042569 12.99735,10.8825532 C13.4410522,10.5608495 13.6629,9.98638711 13.6629,9.15914894 C13.6629,8.41361329 13.4410522,7.87489528 12.99735,7.54297872 C12.5536478,7.21106217 11.9187041,7.04510638 11.0925,7.04510638 L10.1898,7.04510638 Z" id="Combined-Shape"></path>
                    </g>
                </g>
            </g>
        </g>
    </g>
</svg>