<svg width="38px" height="40px" viewBox="0 0 38 40" version="1.1" xmlns="http://www.w3.org/2000/svg" xmlns:xlink="http://www.w3.org/1999/xlink">
    <g stroke="none" stroke-width="1" fill="none" fill-rule="evenodd">
        <g transform="translate(-168.000000, -2784.000000)" fill="#393185">
            <g transform="translate(62.000000, 2756.000000)">
                <g transform="translate(106.000000, 28.000000)">
                    <g >
                        <path d="M7.64306667,39.0419355 C5.34976667,39.4664516 2.57133333,38.476129 2.57133333,38.4754839 L0.8759,17.3832258 C1.90316667,18.3245161 3.47763333,19.2032258 5.66833333,20.0651613 C6.37893333,20.3451613 7.02556667,20.6574194 7.64306667,20.9845161 L7.64306667,39.0419355 Z M5.90583333,19.4387097 C3.14893333,18.3541935 1.59663333,17.3103226 0.7904,16.3225806 C-1.13683333,13.9574194 1.2426,11.9103226 1.83033333,10.3793548 C2.66443333,8.20967742 4.6094,2.54774194 4.79433333,1.45661261e-13 C4.79433333,1.45661261e-13 12.3905333,1.03741935 16.2804667,1.03806452 C18.8131667,1.03806452 21.1039333,2.47483871 22.3984667,3.47935484 C22.4605333,3.38645161 22.5238667,3.29290323 22.5884667,3.20064516 C22.6524333,3.10967742 22.7157667,3.01935484 22.7816333,2.92967742 C23.9545667,1.32903226 25.5493,1.45661261e-13 27.6228333,0.344516129 C27.7932,0.372903226 27.9426667,0.581935484 27.9293667,0.754193548 C27.7691333,2.84129032 25.954,4.15870968 24.1046667,5.00451613 C23.9894,5.05677419 23.8747667,5.10709677 23.7595,5.15612903 C23.6442333,5.20645161 23.5283333,5.25354839 23.4137,5.29870968 C23.3896333,5.54322581 23.3649333,5.8283871 23.3389667,6.14967742 C23.4447333,6.18129032 23.5536667,6.21870968 23.6619667,6.25354839 C23.7683667,6.28903226 23.8741333,6.32064516 23.9818,6.35935484 C25.1325667,6.76709677 26.3118333,7.38387097 26.9426333,8.36967742 C27.6038333,9.40322581 27.3878667,11.1851613 26.2168333,11.8174194 C26.4841,12.5522581 26.7197,13.3058065 26.9274333,14.0780645 C27.3264333,15.5509677 27.4949,18.1606452 28.4227333,19.7993548 C28.6311,20.1690323 28.8768333,20.4922581 29.1757667,20.7374194 C29.3949,20.9187097 29.6387333,21.0619355 29.9161333,21.1529032 C30.2454667,21.26 30.2682667,21.6380645 30.1067667,21.8483871 C30.0333,21.943871 29.9218333,21.996129 29.7837667,21.9819355 C29.754,21.9787097 29.7261333,21.9825806 29.6938333,21.9716129 C29.4810333,21.9025806 29.2929333,21.8070968 29.1137,21.7058065 C29.7419667,22.456129 30.3081667,23.0909677 30.7312333,23.496129 C32.3063333,25.0058065 37.772,25.1 37.6789,28.12 C37.5858,31.14 37.3084,36.6129032 37.3084,36.6129032 C37.3084,36.6129032 31.2873,39.7264516 27.3967333,39.7264516 C27.2339667,39.7264516 27.0724667,39.7264516 26.9116,39.7264516 C23.2085,39.7264516 19.8239667,39.6393548 18.2260667,35.48 C16.6680667,31.4245161 15.4318,24.156129 7.64306667,20.2174194 C7.09586667,19.9406452 6.51953333,19.68 5.90583333,19.4387097 Z M26.8337,17.3058065 C26.4834667,15.5329032 26.0591333,13.7432258 25.4302333,12.0477419 C24.8336333,12.06 24.3276,11.7012903 23.8735,11.1735484 C23.7538,11.0341935 23.6366333,10.8851613 23.5239,10.7258065 C23.408,10.5612903 23.2952667,10.3877419 23.1844333,10.2103226 C23.2129333,12.1445161 23.4257333,14.0516129 24.0616,15.003871 C24.8672,16.2116129 26.1826333,18.0109677 27.4860333,19.683871 C27.3581,19.3670968 27.2447333,19.0412903 27.1522667,18.7051613 C27.0788,18.4380645 27.0161,18.1683871 26.9572,17.8993548 C26.9141333,17.7 26.8729667,17.5012903 26.8337,17.3058065 Z M23.9203667,7.26 C23.8608333,7.23612903 23.8013,7.20903226 23.7417667,7.18645161 C23.8013,7.26322581 23.8526,7.34387097 23.9102333,7.42193548 C24.7329333,8.53354839 25.3846333,9.72774194 25.9033333,10.9941935 C26.1066333,10.8206452 26.2643333,10.5470968 26.3713667,10.2967742 C26.6804333,9.57612903 26.4404,8.91870968 25.8767333,8.41612903 C25.3061,7.90774194 24.6297,7.54258065 23.9203667,7.26 Z M23.5391,8.33096774 C23.4371333,8.18258065 23.3358,8.03548387 23.2275,7.89096774 C23.2154667,8.13548387 23.2066,8.38645161 23.199,8.64193548 C23.3028667,8.83612903 23.4086333,9.02903226 23.5150333,9.22 C23.6176333,9.40645161 23.7272,9.58387097 23.8399333,9.75935484 C24.1566,10.2554839 24.5188667,10.7019355 25.0084333,10.9980645 C24.6784667,10.2374194 24.2934,9.50451613 23.8526,8.80387097 C23.7531667,8.64387097 23.6467667,8.48709677 23.5391,8.33096774 Z M23.2351,3.72967742 C23.1705,3.82451613 23.1084333,3.91870968 23.0482667,4.01483871 C23.2408,4.18258065 23.3782333,4.3116129 23.4472667,4.37870968 C23.5555667,4.33290323 23.6645,4.28516129 23.7747,4.23548387 C23.8817333,4.18709677 23.9881333,4.13741935 24.0951667,4.08580645 C25.441,3.43290323 26.7399667,2.4883871 27.0376333,1.12903226 C25.5252333,1.06580645 24.3212667,2.20774194 23.427,3.45548387 C23.3611333,3.54645161 23.2971667,3.63741935 23.2351,3.72967742 Z"></path>
                    </g>
                </g>
            </g>
        </g>
    </g>
</svg>