<svg width="48px" height="50px" viewBox="0 0 48 50" version="1.1" xmlns="http://www.w3.org/2000/svg" xmlns:xlink="http://www.w3.org/1999/xlink">
    <g stroke-width="1" fill-rule="evenodd">
        <g transform="translate(-438.000000, -2747.000000)" fill-rule="nonzero" stroke="#F1EDDE" stroke-width="0.5">
            <g transform="translate(439.000000, 2748.000000)">
                <path d="M45.7425927,12.4212329 L36.329227,0.47260274 C36.0931229,0.174657534 35.7440996,0 35.36428,0 L10.6452129,0 C10.2653933,0 9.91636996,0.174657534 9.68026591,0.47260274 L0.266900227,12.4212329 C0.09238854,12.6369863 0,12.9041096 0,13.1815068 L0,46.7671233 C0,47.4452055 0.55433124,48 1.2318472,48 L44.7673803,48 C45.4448963,48 45.9992275,47.4452055 45.9992275,46.7671233 L45.9992275,13.1815068 C46.0094929,12.9041096 45.9171044,12.6369863 45.7425927,12.4212329 Z M42.3960745,12.1541096 L24.2365937,12.1541096 L24.2365937,2.46575342 L34.7688872,2.46575342 L42.3960745,12.1541096 Z M11.2406057,2.46575342 L21.7728993,2.46575342 L21.7728993,12.1541096 L3.61341845,12.1541096 L11.2406057,2.46575342 Z M2.4636944,45.5342466 L2.4636944,14.619863 L43.5355331,14.619863 L43.5355331,45.5342466 L2.4636944,45.5342466 Z"></path>
                <path d="M29.7562197,24.3733081 L20.9239095,32.9179701 L17.2547658,29.368322 C16.7384491,28.8688206 15.9035541,28.8688206 15.3872375,29.368322 C14.8709208,29.8678234 14.8709208,30.6755277 15.3872375,31.1750291 L19.9901454,35.6280309 C20.242811,35.8724677 20.5833603,36 20.9239095,36 C21.2644588,36 21.5940226,35.8724677 21.8576737,35.6280309 L31.6127625,26.1906429 C32.1290792,25.6911415 32.1290792,24.8834371 31.6127625,24.3839358 C31.1074313,23.8738067 30.2725363,23.8738067 29.7562197,24.3733081 Z"></path>
            </g>
        </g>
    </g>
</svg>