<?xml version="1.0" encoding="UTF-8"?>
<svg width="36px" height="35px" viewBox="0 0 36 35" version="1.1" xmlns="http://www.w3.org/2000/svg" xmlns:xlink="http://www.w3.org/1999/xlink">
    <!-- Generator: Sketch 52.3 (67297) - http://www.bohemiancoding.com/sketch -->
    <title>Combined Shape</title>
    <desc>Created with Sketch.</desc>
    <g id="Page-1" stroke="none" stroke-width="1" fill="none" fill-rule="evenodd">
        <g id="Стартовая" transform="translate(-444.000000, -2787.000000)" fill="#393185">
            <g id="Group-50" transform="translate(62.000000, 2756.000000)">
                <g id="like-2" transform="translate(382.000000, 31.000000)">
                    <g id="like">
                        <path d="M5.83331007,11 C6.47479411,11 7,11.537419 7,12.1999677 L7,33.8001759 C7,34.4623657 6.47716713,35 5.83331007,35 L1.16668993,35 C0.522832871,35 0,34.4624374 0,33.8001759 L0,12.1999677 C0,11.537419 0.5251361,11 1.16668993,11 L5.83331007,11 Z M33.1315019,11.3067832 C36.1940511,11.850123 37.0703319,16.2083772 34.4492565,17.9692567 C35.3389403,19.6197523 34.8194541,21.7693908 33.3003108,22.7899554 C34.1899946,24.440451 33.6704396,26.5900895 32.1513651,27.6106541 C33.4257491,29.9748599 31.7324357,33.0015856 29.1486138,32.9999994 L10,33 L10,13.7170605 C10,13.7170605 15.5412092,8.45237474 17.3249756,6.62747114 C18.3480706,5.58080663 19.008735,4.18633543 19.2738393,2.71969291 C19.3783827,2.14145709 19.3480713,1.53272329 19.6416312,1.01122957 C19.8969066,0.557797514 20.3251838,0.219363731 20.8125028,0.0907387056 C21.6622525,-0.133634096 22.7162088,0.0786981343 23.4705566,0.501488016 C25.7873497,1.79985094 26.327937,5.45189321 25.492965,7.84371304 L24.2828467,11.3067832 C24.2828467,11.3067832 32.9464719,11.273906 33.1315019,11.3067832 Z" id="Combined-Shape"></path>
                    </g>
                </g>
            </g>
        </g>
    </g>
</svg>