<svg width="55px" height="48px" viewBox="0 0 55 48" version="1.1" xmlns="http://www.w3.org/2000/svg" xmlns:xlink="http://www.w3.org/1999/xlink">
    <g stroke-width="1" fill-rule="evenodd">
        <g transform="translate(-160.000000, -2748.000000)">
            <g transform="translate(160.000000, 2748.000000)">
                <circle cx="15" cy="5" r="1"></circle>
                <path d="M53.4138059,37.1910815 C52.0026023,35.7153754 49.7687607,34.7005638 46.5857377,34.3070566 C40.6617335,33.5744496 35.4868907,30.4416434 32.5535166,25.6550902 C29.9688345,21.4372728 29.3331108,16.4077792 29.3121635,3.00852371 C29.3094779,1.3605095 28.1899252,0 26.5823541,0 L18.3331995,0 L10.9998179,0 L4.58328361,0 C3.00600554,0 1.75206786,1.32686993 1.83736098,2.91214798 C2.43226433,13.9855141 2.14641424,22.8045967 0.225600431,25.2357314 C0.0858443343,25.393978 -0.0012749541,25.602738 1.41105893e-05,25.8415681 C1.41105893e-05,25.8436232 0.000121532647,25.8456784 0.000121532647,25.8478417 C0.000443798818,25.8703402 0.00141059733,25.8931631 0.00334419436,25.9162025 C0.00409614876,25.9257211 0.00495552522,25.9352396 0.00592232374,25.9447582 C0.00667427814,25.95114 0.0067817002,25.9573055 0.00764107665,25.9637954 L2.75764574,47.1931735 C2.81715756,47.6528782 3.20613283,47.9968455 3.66665119,47.9968455 L12.8332976,47.9968455 C13.2937085,47.9968455 13.6826838,47.6529864 13.7423031,47.1931735 L14.8348928,38.759702 C20.1210248,43.1901734 23.0808248,45.6390472 23.4413332,45.858732 C25.823095,47.3081538 29.0186864,48.0568775 32.1011623,47.9966291 C41.8984836,47.8039858 50.2820232,45.940938 54.7451949,41.2513013 C54.9086913,41.0794259 55,40.8506552 55,40.6126904 C55,39.6973914 54.594804,38.4261187 53.4138059,37.1910815 Z M17.4165671,1.8460658 L17.4165671,7.92487589 L14.6665624,10.6939205 L11.9165578,7.92487589 L11.9165578,1.8460658 L17.4165671,1.8460658 Z M12.0283841,46.1507797 L4.47145724,46.1507797 L2.1296564,28.0723796 C2.68320226,28.5392232 3.27251966,29.0361369 3.89116329,29.5577125 C6.56575767,31.8121042 9.24411183,34.0666041 11.749409,36.1707535 L11.8423291,36.248741 C12.1721148,36.5257536 12.4952404,36.7970335 12.8149284,37.0652847 C12.9329853,37.1643646 13.0510421,37.2634444 13.1671654,37.3609018 L12.0283841,46.1507797 Z M32.0653908,46.150996 C29.3108744,46.2048626 26.4547367,45.5356407 24.3899774,44.2790786 C24.0988636,44.1016866 19.6310728,40.3866239 13.0154854,34.8301465 C10.4196314,32.6497402 7.7420292,30.3959975 5.06818677,28.1421466 C4.13232581,27.3532934 3.26381848,26.6207945 2.48468629,25.9634709 C2.31485202,25.8201512 2.21140458,25.7328614 2.1311603,25.6651496 C4.06056787,22.140026 4.26069517,13.8453312 3.66804768,2.8124191 C3.63979568,2.2860843 4.05562646,1.8460658 4.58328361,1.8460658 L10.0832929,1.8460658 L10.0832929,8.30713385 C10.0832929,8.55191307 10.1798654,8.78674103 10.3517407,8.95980632 L14.0183777,12.6518298 C14.376308,13.0122382 14.9567094,13.0122382 15.3147471,12.6518298 L18.9813842,8.95980632 C19.1532595,8.78674103 19.2498319,8.55191307 19.2498319,8.30713385 L19.2498319,1.8460658 L26.5822467,1.8460658 C27.0935757,1.8460658 27.4776096,2.31280125 27.4787912,3.01155235 C27.5002756,16.7662407 28.1624252,22.0050351 30.9933186,26.6245803 C34.2297304,31.9057758 39.903656,35.3406891 46.3622998,36.1393854 C49.1496873,36.4838935 50.9933721,37.3215295 52.0931591,38.4715483 C52.5745174,38.974952 52.8779847,39.5037746 53.044274,40.0256746 C53.074567,40.1206442 53.0980925,40.2069605 53.1159245,40.2830011 C49.0159469,44.2713988 41.1567343,45.9721979 32.0653908,46.150996 Z" fill-rule="nonzero"></path>
            </g>
        </g>
    </g>
</svg>