<?xml version="1.0" encoding="UTF-8"?>
<svg width="52px" height="32px" viewBox="0 0 52 32" version="1.1" xmlns="http://www.w3.org/2000/svg" xmlns:xlink="http://www.w3.org/1999/xlink">
    <!-- Generator: Sketch 52.3 (67297) - http://www.bohemiancoding.com/sketch -->
    <title>Combined Shape</title>
    <desc>Created with Sketch.</desc>
    <g id="Page-1" stroke="none" stroke-width="1" fill="none" fill-rule="evenodd">
        <g id="Стартовая" transform="translate(-986.000000, -2788.000000)" fill="#393185" fill-rule="nonzero">
            <g id="Group-50" transform="translate(62.000000, 2756.000000)">
                <g id="delivery-van-2" transform="translate(924.000000, 32.000000)">
                    <g id="delivery-van">
                        <path d="M16.2413759,22.7661514 C18.7645897,22.7661514 20.8081769,24.8050996 20.8081769,27.3222629 C20.8081769,29.8395538 18.7645897,31.878502 16.2413759,31.878502 C13.7190565,31.878502 11.6749582,29.8395538 11.6749582,27.3222629 C11.6749582,24.8050996 13.7190565,22.7661514 16.2413759,22.7661514 Z M16.2413759,29.3030757 C17.3379754,29.3030757 18.227086,28.4163825 18.227086,27.3222629 C18.227086,26.2276335 17.3379754,25.3414502 16.2413759,25.3414502 C15.1449042,25.3414502 14.2564324,26.2276335 14.2564324,27.3222629 C14.2564324,28.4163825 15.1449042,29.3030757 16.2413759,29.3030757 Z M40.3208256,22.7661514 C42.8441671,22.7661514 44.8876265,24.8050996 44.8876265,27.3222629 C44.8876265,29.8395538 42.8441671,31.878502 40.3208256,31.878502 C37.7985061,31.878502 35.7545356,29.8395538 35.7545356,27.3222629 C35.7545356,24.8050996 37.7985061,22.7661514 40.3208256,22.7661514 Z M40.3208256,29.3030757 C41.4175528,29.3030757 42.3066634,28.4163825 42.3066634,27.3222629 C42.3066634,26.2276335 41.4175528,25.3414502 40.3208256,25.3414502 C39.2243538,25.3414502 38.3360098,26.2276335 38.3360098,27.3222629 C38.3360098,28.4163825 39.2243538,29.3030757 40.3208256,29.3030757 Z M21.3786437,8.76608765 C21.3786437,9.40455777 20.8550663,9.92688446 20.2153514,9.92688446 L4.16242752,9.92688446 C3.52258477,9.92688446 2.9992629,9.40455777 2.9992629,8.76608765 L2.9992629,8.06960956 C2.9992629,7.43126693 3.52271253,6.90894024 4.16242752,6.90894024 L20.2153514,6.90894024 C20.8551941,6.90894024 21.3786437,7.43126693 21.3786437,8.06960956 L21.3786437,8.76608765 Z M49.2687862,15.5621992 C50.6587322,15.922741 51.9722752,15.922741 51.9721474,20.0739442 L51.9721474,25.0032191 C51.9721474,26.4303426 50.8022113,27.5977689 49.3718919,27.5977689 C49.3718919,27.5977689 47.7357445,27.5977689 46.4146634,27.5977689 C46.26914,27.5977689 46.2714398,27.4149482 46.2714398,27.3225179 C46.2714398,24.0489562 43.6020639,21.3855618 40.3209533,21.3855618 C37.0398428,21.3855618 34.3704668,24.0487012 34.3704668,27.3225179 C34.3704668,27.4021992 34.3799214,27.5977689 34.1473907,27.5977689 C34.1473907,27.5977689 25.2989582,27.5977689 22.4178771,27.5977689 C22.1657985,27.5977689 22.1921179,27.4149482 22.1921179,27.3225179 C22.1921179,24.0489562 19.522742,21.3855618 16.2415037,21.3855618 C12.9605209,21.3855618 10.2910172,24.0487012 10.2910172,27.3225179 C10.2910172,27.4145657 10.2424668,27.5977689 9.91283538,27.5977689 C9.5494742,27.5977689 8.45939066,27.5977689 8.45939066,27.5977689 C7.01220639,27.5977689 5.82808845,26.4160637 5.82808845,24.9721116 C5.82808845,24.9721116 5.82808845,20.7414821 5.82808845,19.3311873 C5.82808845,18.5186932 6.85071253,18.5375618 6.85071253,18.5375618 L15.9365307,18.5375618 C17.2194103,18.5375618 18.2631155,17.4962231 18.2631155,16.2160956 L18.2631155,15.5196175 C18.2631155,14.2396175 17.2194103,13.1981514 15.9365307,13.1981514 L6.70506143,13.1981514 C6.70506143,13.1981514 5.82808845,13.1985339 5.82808845,12.5600637 C5.82808845,12.3593944 5.82808845,12.1175458 5.82808845,11.757259 C5.82808845,11.0318406 6.50153317,11.0876813 6.50153317,11.0876813 L20.2153514,11.0876813 C21.498231,11.0876813 22.5419361,10.0463426 22.5419361,8.76621514 L22.5419361,8.06973705 C22.5419361,6.78960956 21.498231,5.74827092 20.2153514,5.74827092 C20.2153514,5.74827092 9.92995577,5.74827092 6.50153317,5.74827092 C5.82808845,5.74827092 5.82808845,5.05396016 5.82808845,5.05396016 L5.82808845,2.71949004 C5.82808845,1.27553785 7.01220639,0.0938326693 9.50628993,0.0938326693 L34.0124717,0.0938326693 C35.7545356,0.0938326693 36.5735037,1.27541036 36.5735037,2.71949004 C36.5735037,2.71949004 36.5735037,5.51330677 36.5735037,6.44462151 C36.5735037,6.85080478 36.9780049,6.84239044 36.9780049,6.84239044 L39.9849337,6.84239044 C41.4144865,6.84239044 43.1226929,7.87913944 43.7804226,9.14613546 L45.97886,13.587761 C46.6363342,14.854757 47.5944373,15.1278406 49.2687862,15.5621992 Z M44.3208649,15.3313147 C44.6119115,15.3313147 44.7284324,15.1678725 44.6589287,15.0750598 C44.5646388,14.9484622 44.4766093,14.8072032 44.3942015,14.6480956 L42.4378771,10.6959044 C41.8528452,9.56850996 40.3329631,8.64599203 39.0605602,8.64599203 C39.0605602,8.64599203 37.4767961,8.64599203 36.9487469,8.64599203 C36.5561278,8.64599203 36.5733759,8.88223108 36.5733759,8.88223108 L36.5733759,15.0342629 C36.5733759,15.0342629 36.6140049,15.3313147 36.9197445,15.3313147 C38.799027,15.3313147 44.3208649,15.3313147 44.3208649,15.3313147 Z M17.0996953,16.2160956 C17.0996953,16.8545657 16.5762457,17.3768924 15.9365307,17.3768924 L1.16316462,17.3768924 C0.523321867,17.3768924 2.28261854e-12,16.8545657 2.28261854e-12,16.2160956 L2.28261854e-12,15.5196175 C2.28261854e-12,14.8812749 0.523449631,14.3589482 1.16316462,14.3589482 L15.9365307,14.3589482 C16.5763735,14.3589482 17.0996953,14.8812749 17.0996953,15.5196175 L17.0996953,16.2160956 Z" id="Combined-Shape"></path>
                    </g>
                </g>
            </g>
        </g>
    </g>
</svg>