<svg width="58px" height="38px" viewBox="0 0 58 38" version="1.1" xmlns="http://www.w3.org/2000/svg" xmlns:xlink="http://www.w3.org/1999/xlink">
    <g stroke-width="1" fill-rule="evenodd">
        <g transform="translate(-984.000000, -2755.000000)" fill-rule="nonzero" stroke="#F1EDDE" stroke-width="1.5">
            <g id="truck-(2)" transform="translate(985.000000, 2756.000000)">
                <path d="M56,19.8960947 C56,16.8246158 53.4762573,14.3262371 50.3740234,14.3262371 L48.2976074,14.3262371 L42.6532592,3.9144227 L36.7094116,3.9144227 L36.7094116,0 L0,0 L0,31.6495137 L5.24871823,31.6495137 C5.96563723,34.1567743 8.29669192,36 11.0558471,36 C13.8150025,36 16.1460572,34.1567743 16.862976,31.6495137 L38.5281982,31.6495137 C39.24469,34.1567743 41.5757447,36 44.3353271,36 C47.0944824,36 49.4255371,34.1567743 50.1420288,31.6495137 L56,31.6495137 L56,19.8960947 Z M40.6904907,7.16269564 L44.5737305,14.3262371 L36.7094116,14.3262371 L36.7094116,7.16269564 L40.6904907,7.16269564 Z M11.0558471,32.7517271 C9.53698725,32.7517271 8.30181887,31.5285493 8.30181887,30.0253772 C8.30181887,28.5217821 9.53698725,27.2986043 11.0558471,27.2986043 C12.574707,27.2986043 13.8098755,28.5217821 13.8098755,30.0253772 C13.8098755,31.5285493 12.574707,32.7517271 11.0558471,32.7517271 Z M11.0558471,24.0507543 C8.29669192,24.0507543 5.96563723,25.89398 5.24871823,28.4012407 L3.28125,28.4012407 L3.28125,3.24827295 L33.4281616,3.24827295 L33.4281616,28.4012407 L16.862976,28.4012407 C16.1460572,25.893557 13.8150025,24.0507543 11.0558471,24.0507543 Z M44.3353271,32.7517271 C42.8164673,32.7517271 41.5808716,31.5285493 41.5808716,30.0253772 C41.5808716,28.5217821 42.8164673,27.2986043 44.3353271,27.2986043 C45.8537598,27.2986043 47.0893555,28.5217821 47.0893555,30.0253772 C47.0893555,31.5285493 45.8537598,32.7517271 44.3353271,32.7517271 Z M50.1420288,28.4012407 C49.4251099,25.89398 47.0940552,24.0507543 44.3348999,24.0507543 C41.5757447,24.0507543 39.24469,25.89398 38.5281982,28.4012407 L36.7094116,28.4012407 L36.7094116,17.5745101 L50.3735962,17.5745101 C51.6668701,17.5745101 52.71875,18.6158185 52.71875,19.8960947 L52.71875,20.8024813 L50.203125,20.8024813 L50.203125,24.0507543 L52.71875,24.0507543 L52.71875,28.4012407 L50.1420288,28.4012407 Z"></path>
            </g>
        </g>
    </g>
</svg>