<?xml version="1.0" encoding="UTF-8"?>
<svg width="32px" height="32px" viewBox="0 0 32 32" version="1.1" xmlns="http://www.w3.org/2000/svg" xmlns:xlink="http://www.w3.org/1999/xlink">
    <!-- Generator: Sketch 52.3 (67297) - http://www.bohemiancoding.com/sketch -->
    <title>Combined Shape</title>
    <desc>Created with Sketch.</desc>
    <g id="Page-1" stroke="none" stroke-width="1" fill="none" fill-rule="evenodd">
        <g id="Стартовая" transform="translate(-819.000000, -3712.000000)" fill="#E64840">
            <g id="Group-42" transform="translate(62.000000, 3600.000000)">
                <g id="Group-43" transform="translate(757.000000, 77.000000)">
                    <g id="instagram-2" transform="translate(0.000000, 35.000000)">
                        <g id="instagram">
                            <path d="M19.0877193,16 C19.0877193,17.7053348 17.7053348,19.0877193 16,19.0877193 C14.2946652,19.0877193 12.9122807,17.7053348 12.9122807,16 C12.9122807,14.2946652 14.2946652,12.9122807 16,12.9122807 C17.7053348,12.9122807 19.0877193,14.2946652 19.0877193,16 Z M23.206774,10.5477223 C23.3335341,10.873466 23.484123,11.3630643 23.525148,12.264387 C23.5696123,13.2391618 23.5789474,13.531496 23.5789474,16.0001228 C23.5789474,18.468504 23.5696123,18.7608382 23.525148,19.7358586 C23.4838773,20.6371813 23.3332884,21.126534 23.206774,21.4522778 C22.8957698,22.2585305 22.2585305,22.8957698 21.4522777,23.206774 C21.126534,23.3335341 20.6369357,23.484123 19.735613,23.525148 C18.7610839,23.5696124 18.4687497,23.5789474 15.9998772,23.5789474 C13.5312503,23.5789474 13.2391618,23.5696124 12.264387,23.525148 C11.3630643,23.484123 10.873466,23.3335341 10.5477222,23.206774 C10.1460698,23.0586417 9.7829859,22.8223178 9.48475595,22.515244 C9.17768222,22.2170141 8.94160398,21.8539302 8.79322597,21.4522778 C8.66671159,21.126534 8.51612266,20.6371813 8.4750976,19.7358586 C8.43063335,18.7608382 8.42105263,18.468504 8.42105263,16.0001228 C8.42105263,13.531496 8.43063335,13.2391618 8.4750976,12.264387 C8.51612266,11.3630643 8.66671159,10.873466 8.79322597,10.5477223 C8.94160398,10.1460699 9.17792787,9.7829859 9.4850016,9.48475595 C9.7829859,9.17768222 10.1463155,8.94135834 10.5479679,8.79322597 C10.873466,8.66671159 11.3630643,8.51612266 12.264387,8.47485196 C13.2391618,8.4303877 13.531496,8.42105263 16.0001228,8.42105263 C18.468504,8.42105263 18.7608382,8.43063335 19.7358586,8.4750976 C20.6371813,8.51612266 21.126534,8.66671159 21.4522777,8.79322597 C21.8539301,8.94135834 22.2170141,9.17768222 22.515244,9.48475595 C22.8223178,9.7829859 23.0586417,10.1463155 23.206774,10.5477223 Z M16.0001228,20.7469909 C18.6217952,20.7469909 20.7472365,18.6217952 20.7472365,15.9998772 C20.7472365,13.3779591 18.6217952,11.2527635 16.0001228,11.2527635 C13.3782048,11.2527635 11.2527635,13.3779591 11.2527635,15.9998772 C11.2527635,18.6217952 13.3782048,20.7469909 16.0001228,20.7469909 Z M20.93492,12.1744759 C21.5475935,12.1744759 22.0440702,11.6777535 22.0443158,11.06508 C22.0443158,10.4524065 21.5475935,9.95568416 20.93492,9.95568416 C20.3222465,9.95568416 19.8255241,10.4524065 19.8255241,11.06508 C19.8255241,11.6777535 20.3222465,12.1744759 20.93492,12.1744759 Z M16,0 C24.8352051,0 32,7.16479494 32,16 C32,24.8352051 24.8352051,32 16,32 C7.16479494,32 0,24.8352051 0,16 C0,7.16479494 7.16479494,0 16,0 Z M25.1320801,19.7878418 C25.1770019,18.8081055 25.1875,18.4951172 25.1875,16 C25.1875,13.5048828 25.1770019,13.1918945 25.1323242,12.2121582 C25.0876465,11.2341309 24.9323731,10.5664063 24.7050781,9.98193363 C24.4746094,9.3688965 24.112793,8.81372069 23.6455078,8.35473631 C23.1865234,7.887207 22.6311035,7.52539063 22.0180664,7.29467775 C21.4335938,7.06787113 20.7658691,6.91259763 19.7878418,6.86816406 C18.8081055,6.82324219 18.4951172,6.8125 16,6.8125 C13.5048828,6.8125 13.1918945,6.82324219 12.2121582,6.86791994 C11.2341309,6.91259763 10.5664063,7.06787113 9.98193363,7.29492188 C9.3688965,7.52563475 8.81347656,7.887207 8.35473631,8.35473631 C7.887207,8.81347656 7.52539063,9.3688965 7.29467775,9.98193363 C7.06762694,10.5664063 6.9123535,11.2341309 6.86791994,12.2121582 C6.82299806,13.1918945 6.8125,13.5048828 6.8125,16 C6.8125,18.4951172 6.82299806,18.8081055 6.86816406,19.7880859 C6.91259763,20.7658691 7.06811525,21.4338379 7.295166,22.0180664 C7.52587888,22.6311035 7.88745119,23.1865234 8.35473631,23.6452637 C8.81372069,24.112793 9.3688965,24.4743653 9.98217775,24.7050781 C10.5664063,24.9321289 11.234375,25.0874024 12.2121582,25.1320801 C13.1921387,25.1767578 13.5048828,25.1875 16.0002441,25.1875 C18.4953613,25.1875 18.8083496,25.1767578 19.7880859,25.1320801 C20.7658691,25.0874024 21.4338379,24.9321289 22.0180664,24.7050781 C23.2521972,24.2277832 24.2277832,23.2521973 24.7050781,22.0180664 C24.9321289,21.4335938 25.0876465,20.7658691 25.1320801,19.7878418 Z" id="Combined-Shape"></path>
                        </g>
                    </g>
                </g>
            </g>
        </g>
    </g>
</svg>