<svg width="168px" height="35px" viewBox="0 0 168 35" version="1.1" xmlns="http://www.w3.org/2000/svg" xmlns:xlink="http://www.w3.org/1999/xlink">
    <g stroke="none" stroke-width="1" fill="none" fill-rule="evenodd">
        <g transform="translate(-82.000000, -66.000000)" fill="#FFFFFF">
            <g transform="translate(82.000000, 61.000000)">
                <g>
                    <path d="M155.014925,34.2806455 L159.223682,33.97811 C159.313387,34.7631819 159.499991,35.3599194 159.780305,35.7736302 C160.232819,36.4399622 160.886355,36.7689615 161.732918,36.7689615 C162.362423,36.7689615 162.848581,36.6003075 163.192164,36.2599613 C163.531756,35.9188462 163.701539,35.5248035 163.701539,35.077052 C163.701539,34.6520067 163.542157,34.2692986 163.215395,33.9327346 C162.88862,33.5954142 162.135766,33.2777495 160.949638,32.9789963 C159.010643,32.4775607 157.62747,31.8157674 156.800947,30.9845636 C155.968001,30.1541163 155.551522,29.0975239 155.551522,27.8117604 C155.551522,26.9654398 155.764575,26.1652386 156.191454,25.414964 C156.617533,24.6646893 157.257452,24.075504 158.113627,23.6428817 C158.970591,23.2140418 160.143114,23 161.6328,23 C163.462078,23 164.858055,23.3902728 165.817539,24.1708059 C166.777023,24.9520832 167.347264,26.1962536 167.529877,27.8994977 L163.36196,28.1785828 C163.25223,27.4404116 163.019178,26.9003964 162.661963,26.5638201 C162.308766,26.230282 161.819418,26.0623845 161.196308,26.0623845 C160.679724,26.0623845 160.292884,26.1849066 160.033397,26.4375156 C159.773096,26.6855982 159.643353,26.99266 159.643353,27.3519179 C159.643353,27.6120914 159.749879,27.8458012 159.962918,28.0560607 C160.172753,28.2746412 160.666107,28.4735537 161.4494,28.6611193 C163.381986,29.1398734 164.764345,29.6262045 165.601296,30.1155367 C166.437432,30.6056378 167.046924,31.2107088 167.427356,31.9382896 C167.806987,32.661344 168,33.4728797 168,34.3729216 C168,35.4249628 167.743717,36.3976127 167.237534,37.2855388 C166.730563,38.1772472 166.020966,38.8511315 165.107929,39.3109864 C164.19811,39.7700725 163.048803,40 161.662439,40 C159.230091,40 157.544187,39.4637671 156.60792,38.3844808 C155.668462,37.3089767 155.13826,35.9422966 155.014925,34.2806455 Z M98.7462687,36.6 L100.998419,36.6 C101.760605,36.6 102.296455,36.4432767 102.605956,36.1267415 C102.91867,35.810219 103.074627,35.3848345 103.074627,34.8490437 C103.074627,34.3526331 102.92187,33.9542742 102.612356,33.6539544 C102.302855,33.3528625 101.763805,33.2 100.98882,33.2 L98.7462687,33.2 L98.7462687,36.6 Z M98.7462687,29.8 L100.51257,29.8 C101.146223,29.8 101.587068,29.6499881 101.838762,29.3540862 C102.086788,29.0532379 102.208955,28.6237984 102.208955,28.0649702 C102.208955,27.543226 102.086788,27.1343962 101.838762,26.8426163 C101.587068,26.5467144 101.155792,26.4 100.539793,26.4 L98.7462687,26.4 L98.7462687,29.8 Z M94.4179104,23 L102.545277,23 C103.899834,23 104.939933,23.3870787 105.662418,24.1582517 C106.388833,24.9294125 106.752041,25.8840874 106.752041,27.020047 C106.752041,27.9747218 106.493399,28.7941822 105.976888,29.4791712 C105.630192,29.933845 105.126261,30.2949162 104.461951,30.5579144 C105.469812,30.8365171 106.211954,31.3171983 106.689936,31.9947566 C107.164,32.6752872 107.402985,33.5281858 107.402985,34.5549262 C107.402985,35.3937064 107.232396,36.1455596 106.895909,36.8149441 C106.555504,37.4843287 106.094021,38.0110803 105.505183,38.4018622 C105.142761,38.6425682 104.593238,38.8193946 103.857386,38.9286016 C102.879404,39.0749621 102.231593,39.15 101.910845,39.15 L94.4179104,39.15 L94.4179104,23 Z M113.462687,31.9344538 C113.462687,33.5957494 113.73274,34.7859564 114.276106,35.5126376 C114.81866,36.2362936 115.561524,36.6 116.495775,36.6 C117.457605,36.6 118.202902,36.2438442 118.729234,35.5360829 C119.255566,34.8237714 119.522388,33.5496275 119.522388,31.7128948 C119.522388,30.162763 119.245832,29.033804 118.695991,28.317711 C118.145325,27.6061558 117.400028,27.25 116.455232,27.25 C115.554224,27.25 114.829191,27.6099373 114.282595,28.3373748 C113.735985,29.0602621 113.462687,30.2618136 113.462687,31.9344538 Z M109.134328,31.509462 C109.134328,28.8260034 109.782026,26.7355123 111.071833,25.2432717 C112.364818,23.7465047 114.16325,23 116.46791,23 C118.831363,23 120.65364,23.7344013 121.933113,25.2047045 C123.20942,26.6704689 123.850746,28.729945 123.850746,31.3755805 C123.850746,33.2966611 123.569422,34.8743572 123.010734,36.1026419 C122.452059,37.3316706 121.64543,38.2884224 120.590052,38.9736661 C119.532303,39.6588973 118.220241,40 116.642738,40 C115.042992,40 113.716623,39.7050291 112.665219,39.1158562 C111.617008,38.5221322 110.767458,37.5880619 110.112619,36.3098754 C109.461754,35.0309201 109.134328,33.4312866 109.134328,31.509462 Z M129.910448,31.9344538 C129.910448,33.5957494 130.180514,34.7859564 130.723878,35.5126376 C131.267229,36.2362936 132.009281,36.6 132.943543,36.6 C133.905371,36.6 134.650666,36.2438442 135.177808,35.5360829 C135.704138,34.8237714 135.970149,33.5496275 135.970149,31.7128948 C135.970149,30.162763 135.693594,29.033804 135.143754,28.317711 C134.593901,27.6061558 133.847794,27.25 132.903798,27.25 C132.002805,27.25 131.276963,27.6099373 130.730367,28.3373748 C130.183759,29.0602621 129.910448,30.2618136 129.910448,31.9344538 Z M125.58209,31.509462 C125.58209,28.8260034 126.23057,26.7355123 127.519594,25.2432717 C128.81258,23.7465047 130.611011,23 132.915658,23 C135.279919,23 137.101388,23.7344013 138.380874,25.2047045 C139.657168,26.6704689 140.298507,28.729945 140.298507,31.3755805 C140.298507,33.2966611 140.017183,34.8743572 139.458495,36.1026419 C138.89982,37.3316706 138.093191,38.2884224 137.038608,38.9736661 C135.980859,39.6588973 134.667989,40 133.090499,40 C131.490754,40 130.165179,39.7050291 129.113775,39.1158562 C128.065551,38.5221322 127.216014,37.5880619 126.561175,36.3098754 C125.909515,35.0309201 125.58209,33.4312866 125.58209,31.509462 Z M141.164179,23 L154.149254,23 L154.149254,26.9895811 L149.790978,26.9895811 L149.790978,39.15 L145.51936,39.15 L145.51936,26.9895811 L141.164179,26.9895811 L141.164179,23 Z M76.0178855,23 L81.0024131,23 L83.934438,28.4524308 L86.8664495,23 L91.8208955,23 L86.1730811,32.3855507 L86.1730811,39.15 L81.6754695,39.15 L81.6754695,32.3855507 L76.0178855,23 Z M52,23 L63.0989326,23 L63.0989326,26.4710155 L56.5081808,26.4710155 L56.5081808,29.291211 L62.1348702,29.291211 L62.1348702,32.5512188 L56.5081808,32.5512188 L56.5081808,39.15 L52,39.15 L52,23 Z M65.5139733,23 L70.0050808,23 L70.0050808,35.171565 L77.0087774,35.171565 L77.0087774,39.15 L65.5139733,39.15 L65.5139733,23 Z" id="Combined-Shape" fill-rule="nonzero"></path>
                    <text id="Салоны-обуви" font-family="FiraSans-Medium, Fira Sans" font-size="13" font-weight="400">
                        <tspan x="51" y="15">Салоны обуви</tspan>
                    </text>
                    <path d="M11.8933314,32.7340298 L11.851693,32.788205 L14.0654102,35.5669574 C12.961313,36.1565571 11.7894137,36.6760278 10.5773382,37.0980685 C15.7362935,35.7609706 20.2241642,35.5514237 23.6661687,37.0980685 C23.2169381,35.6954618 22.4047145,32.1734113 24.6851341,30.0354867 C25.7007822,28.9142428 26.226661,28.3448039 27.02341,27.8160928 C27.6008851,27.4326867 27.8304733,26.460101 27.8304733,26.460101 L24.6549099,27.3801916 L24.8200132,26.4097059 C24.8200132,26.4097059 27.7722485,25.4585411 29.3491598,24.4977158 C30.9256966,23.5373105 30.9234851,22.7243035 30.9234851,22.7243035 L26.331322,23.9778251 L26.6718371,22.7923324 C26.6718371,22.7923324 31.1224865,21.7869923 32.7672061,20.7152964 C33.6483436,20.1408174 35.3446534,18.2477211 34.9050061,18.7545913 C34.4657274,19.2614615 27.0208298,21.2587012 27.0208298,21.2587012 L27.1361798,20.5796587 C27.1361798,20.5796587 31.9597741,19.2287071 33.8771946,18.3430441 C35.7942526,17.457808 37.9453219,15.7184102 39.2804816,14.1003764 C40.6156354,12.4823426 41.1404145,11.9943662 42.2367713,10.223054 C43.3327596,8.45174175 42.9262792,7 42.9262792,7 C39.6445804,11.275009 35.9552955,13.8937627 31.2330449,15.7200902 C28.2469056,16.8749286 24.8292219,17.5930326 22.5031095,20.2122064 C21.2807196,21.5879389 21.5895422,23.666228 22.0973663,25.3346569 C22.7419124,27.4520075 21.133677,30.2303399 18.3181639,32.6693611 L16.1803638,29.4332866 C17.8394523,27.7875386 19.3216486,25.8595878 20.7419341,23.7581978 C20.8388608,23.6372538 20.8211685,23.4394605 20.7028759,23.3155763 C20.5842085,23.1925322 20.4095279,23.1908521 20.3122387,23.3117962 C17.8685647,25.9263566 15.6987035,28.2204997 13.1087242,29.9317634 C11.8645876,30.7535839 10.5327451,31.2671744 8.93999044,31.8815481 C7.25400108,32.5320433 5.52968457,32.8625342 3.83263151,33.3538638 C3.11585415,33.5613174 2.3305375,33.7771645 1.65429277,34.1807314 C1.10225021,34.5103891 0.391370264,35.0970418 0.324293236,35.8655409 L0.323924647,35.8663809 L0.324293236,35.8663809 C0.278968959,36.3862647 0.387315793,36.6096721 0.815168262,37.1178024 C2.44145841,37.300482 4.46317734,37.4625739 7.19061597,37.34583 C4.95552067,35.9848049 7.27832186,34.6850815 9.39216974,33.8989486 C10.2722015,33.5722378 11.1032231,33.1812715 11.8933314,32.7340298 Z M0.331665002,38.5485433 C0.123817453,38.5061355 -0.0316965984,38.3419366 0.00552477784,38.1046687 C0.042746154,37.8678208 0.233270052,37.801892 0.441486189,37.8443067 C8.96910288,39.328376 15.6028826,35.030273 23.0636296,37.4999484 C23.9860429,37.8056721 23.6871722,39.1965184 22.5915525,38.8786211 C14.148693,36.4307796 8.56778272,40.2459533 0.331665002,38.5485433 Z M14.5636509,30.8955287 L16.8827663,33.8069857 C16.4873375,34.0938017 16.0753343,34.3734844 15.6496873,34.6430867 L13.6884108,31.5733112 C13.9858072,31.355784 14.2773062,31.1294365 14.5636509,30.8955287 Z M25.7700647,29.9384767 C25.8739885,29.922943 28.3456691,27.5049158 28.3456691,27.5049158 L31.2938499,26.6545342 C31.2938499,26.6545342 31.388565,27.2911688 30.2022847,28.107116 C29.016379,28.9230631 25.7700647,29.9384767 25.7700647,29.9384767 Z M28.6493315,25.9171163 C28.6684981,25.8054126 29.7619002,24.7379238 30.9183248,24.4930956 C32.0386339,24.2558277 35.6118316,22.9120164 35.75998,22.6369539 C35.9084969,22.3614713 34.9879264,24.1987124 33.6446577,24.7484174 C32.3013951,25.2989624 28.5748888,26.5545909 28.5748888,26.5545909 L28.6493315,25.9171163 Z M32.1912053,21.7722917 L31.5429733,23.3995658 C31.5429733,23.3995658 35.3148038,22.0767485 37.0435434,20.6493676 C38.2062341,19.6898024 39.3169658,17.6102464 39.3169658,17.6102464 L35.9855197,19.7229768 L32.1912053,21.7722917 Z M41.8804069,11.6710156 C41.8804069,11.6710156 40.6053209,14.0067265 39.0004029,15.500043 C37.927261,16.4982428 35.9822024,17.9516646 35.9822024,17.9516646 L35.8635351,18.8490743 C35.8635351,18.8490743 39.4492649,16.5188236 40.2102607,15.5361575 C41.5085677,13.8597483 41.8804069,11.6710156 41.8804069,11.6710156 Z" id="Shape"></path>
                </g>
            </g>
        </g>
    </g>
</svg>