<svg width="168px" height="35px" viewBox="0 0 168 35" version="1.1" xmlns="http://www.w3.org/2000/svg" xmlns:xlink="http://www.w3.org/1999/xlink">
    <g stroke="none" stroke-width="1" fill-rule="evenodd">
        <g transform="translate(-82.000000, -66.000000)">
            <g transform="translate(82.000000, 66.185000)">
                <g transform="translate(52.000000, 17.815000)" fill-rule="nonzero">
                    <path d="M103.014925,11.2806455 L107.223682,10.97811 C107.313387,11.7631819 107.499991,12.3599194 107.780305,12.7736302 C108.232819,13.4399622 108.886355,13.7689615 109.732918,13.7689615 C110.362423,13.7689615 110.848581,13.6003075 111.192164,13.2599613 C111.531756,12.9188462 111.701539,12.5248035 111.701539,12.077052 C111.701539,11.6520067 111.542157,11.2692986 111.215395,10.9327346 C110.88862,10.5954142 110.135766,10.2777495 108.949638,9.9789963 C107.010643,9.4775607 105.62747,8.8157674 104.800947,7.98456364 C103.968001,7.15411634 103.551522,6.09752388 103.551522,4.81176041 C103.551522,3.96543979 103.764575,3.1652386 104.191454,2.41496396 C104.617533,1.66468931 105.257452,1.07550403 106.113627,0.642881736 C106.970591,0.214041758 108.143114,0 109.6328,0 C111.462078,0 112.858055,0.390272779 113.817539,1.17080594 C114.777023,1.95208315 115.347264,3.19625358 115.529877,4.89949769 L111.36196,5.17858284 C111.25223,4.4404116 111.019178,3.9003964 110.661963,3.56382007 C110.308766,3.230282 109.819418,3.06238447 109.196308,3.06238447 C108.679724,3.06238447 108.292884,3.18490663 108.033397,3.43751559 C107.773096,3.68559817 107.643353,3.99266005 107.643353,4.35191786 C107.643353,4.61209144 107.749879,4.84580123 107.962918,5.05606067 C108.172753,5.27464121 108.666107,5.47355371 109.4494,5.66111927 C111.381986,6.13987339 112.764345,6.62620454 113.601296,7.11553674 C114.437432,7.6056378 115.046924,8.2107088 115.427356,8.93828956 C115.806987,9.66134395 116,10.4728797 116,11.3729216 C116,12.4249628 115.743717,13.3976127 115.237534,14.2855388 C114.730563,15.1772472 114.020966,15.8511315 113.107929,16.3109864 C112.19811,16.7700725 111.048803,17 109.662439,17 C107.230091,17 105.544187,16.4637671 104.60792,15.3844808 C103.668462,14.3089767 103.13826,12.9422966 103.014925,11.2806455 Z M46.7462687,13.6 L48.9984186,13.6 C49.760605,13.6 50.2964553,13.4432767 50.6059562,13.1267415 C50.91867,12.810219 51.0746269,12.3848345 51.0746269,11.8490437 C51.0746269,11.3526331 50.9218696,10.9542742 50.6123555,10.6539544 C50.3028546,10.3528625 49.7638047,10.2 48.9888196,10.2 L46.7462687,10.2 L46.7462687,13.6 Z M46.7462687,6.8 L48.5125702,6.8 C49.1462227,6.8 49.587068,6.64998808 49.8387624,6.35408618 C50.0867885,6.05323794 50.2089552,5.62379839 50.2089552,5.06497019 C50.2089552,4.54322601 50.0867885,4.13439622 49.8387624,3.84261627 C49.587068,3.54671437 49.1557919,3.4 48.5397934,3.4 L46.7462687,3.4 L46.7462687,6.8 Z M42.4179104,0 L50.5452767,0 C51.8998335,0 52.9399331,0.38707873 53.6624175,1.15825173 C54.3888335,1.92941254 54.7520414,2.88408737 54.7520414,4.02004698 C54.7520414,4.97472181 54.493399,5.79418219 53.9768876,6.47917121 C53.630192,6.93384498 53.1262614,7.29491625 52.4619506,7.55791442 C53.4698118,7.83651706 54.2119538,8.31719829 54.6899363,8.99475661 C55.1640002,9.67528721 55.4029851,10.5281858 55.4029851,11.5549262 C55.4029851,12.3937064 55.2323958,13.1455596 54.8959093,13.8149441 C54.5555041,14.4843287 54.0940211,15.0110803 53.5051825,15.4018622 C53.1427609,15.6425682 52.5932376,15.8193946 51.857386,15.9286016 C50.8794044,16.0749621 50.231593,16.15 49.9108455,16.15 L42.4179104,16.15 L42.4179104,0 Z M61.4626866,8.93445376 C61.4626866,10.5957494 61.7327403,11.7859564 62.2761057,12.5126376 C62.81866,13.2362936 63.561524,13.6 64.4957752,13.6 C65.4576049,13.6 66.2029023,13.2438442 66.7292339,12.5360829 C67.2555655,11.8237714 67.5223881,10.5496275 67.5223881,8.71289478 C67.5223881,7.16276297 67.2458319,6.03380401 66.6959908,5.31771098 C66.1453252,4.60615576 65.4000278,4.25 64.4552319,4.25 C63.5542238,4.25 62.8291914,4.60993727 62.2825948,5.33737481 C61.7359849,6.06026214 61.4626866,7.2618136 61.4626866,8.93445376 Z M57.1343284,8.50946199 C57.1343284,5.82600335 57.7820265,3.73551232 59.0718328,2.24327171 C60.3648184,0.746504734 62.1632503,0 64.46791,0 C66.8313626,0 68.6536399,0.734401329 69.9331131,2.20470451 C71.20942,3.67046892 71.8507463,5.72994498 71.8507463,8.37558048 C71.8507463,10.2966611 71.5694216,11.8743572 71.0107336,13.1026419 C70.4520586,14.3316706 69.6454297,15.2884224 68.5900519,15.9736661 C67.5323026,16.6588973 66.2202405,17 64.6427378,17 C63.0429923,17 61.716623,16.7050291 60.6652195,16.1158562 C59.6170084,15.5221322 58.7674575,14.5880619 58.1126188,13.3098754 C57.4617543,12.0309201 57.1343284,10.4312866 57.1343284,8.50946199 Z M77.9104478,8.93445376 C77.9104478,10.5957494 78.1805142,11.7859564 78.7238784,12.5126376 C79.2672293,13.2362936 80.0092805,13.6 80.943543,13.6 C81.9053706,13.6 82.6506664,13.2438442 83.177808,12.5360829 C83.7041384,11.8237714 83.9701493,10.5496275 83.9701493,8.71289478 C83.9701493,7.16276297 83.6935937,6.03380401 83.1437538,5.31771098 C82.5939006,4.60615576 81.8477937,4.25 80.9037976,4.25 C80.0028048,4.25 79.2769629,4.60993727 78.7303675,5.33737481 C78.1837588,6.06026214 77.9104478,7.2618136 77.9104478,8.93445376 Z M73.5820896,8.50946199 C73.5820896,5.82600335 74.2305695,3.73551232 75.519594,2.24327171 C76.8125796,0.746504734 78.6110114,0 80.9156582,0 C83.2799186,0 85.101388,0.734401329 86.3808743,2.20470451 C87.6571681,3.67046892 88.2985075,5.72994498 88.2985075,8.37558048 C88.2985075,10.2966611 88.0171828,11.8743572 87.4584948,13.1026419 C86.8998198,14.3316706 86.0931909,15.2884224 85.0386079,15.9736661 C83.9808586,16.6588973 82.6679887,17 81.090499,17 C79.4907535,17 78.165179,16.7050291 77.1137755,16.1158562 C76.0655514,15.5221322 75.2160136,14.5880619 74.5611748,13.3098754 C73.9095154,12.0309201 73.5820896,10.4312866 73.5820896,8.50946199 Z M89.1641791,0 L102.149254,0 L102.149254,3.9895811 L97.7909779,3.9895811 L97.7909779,16.15 L93.5193596,16.15 L93.5193596,3.9895811 L89.1641791,3.9895811 L89.1641791,0 Z M24.0178855,0 L29.0024131,0 L31.934438,5.45243075 L34.8664495,0 L39.8208955,0 L34.1730811,9.38555069 L34.1730811,16.15 L29.6754695,16.15 L29.6754695,9.38555069 L24.0178855,0 Z M0,0 L11.0989326,0 L11.0989326,3.47101547 L4.50818082,3.47101547 L4.50818082,6.29121097 L10.1348702,6.29121097 L10.1348702,9.55121883 L4.50818082,9.55121883 L4.50818082,16.15 L0,16.15 L0,0 Z M13.5139733,0 L18.0050808,0 L18.0050808,12.171565 L25.0087774,12.171565 L25.0087774,16.15 L13.5139733,16.15 L13.5139733,0 Z" id="Combined-Shape"></path>
                </g>
                <path d="M55.485,0.637 C56.0310027,0.637 56.5076646,0.71499922 56.915,0.871 C57.3223354,1.02700078 57.7209981,1.26533173 58.111,1.586 L57.24,2.6 C56.7113307,2.17533121 56.1566696,1.963 55.576,1.963 C54.9086633,1.963 54.373502,2.23166398 53.9705,2.769 C53.567498,3.30633602 53.366,4.15132757 53.366,5.304 C53.366,6.4306723 53.5653313,7.26699727 53.964,7.813 C54.3626687,8.35900273 54.8999966,8.632 55.576,8.632 C55.9313351,8.632 56.2476653,8.56916729 56.525,8.4435 C56.8023347,8.31783271 57.0969984,8.13800117 57.409,7.904 L58.215,8.918 C57.9116652,9.23000156 57.528169,9.48999896 57.0645,9.698 C56.600831,9.90600104 56.0830029,10.01 55.511,10.01 C54.7309961,10.01 54.042003,9.82800182 53.444,9.464 C52.845997,9.09999818 52.382335,8.56483686 52.053,7.8585 C51.723665,7.15216313 51.559,6.30067165 51.559,5.304 C51.559,4.32466177 51.730165,3.48400351 52.0725,2.782 C52.414835,2.07999649 52.8828304,1.54700182 53.4765,1.183 C54.0701696,0.81899818 54.7396629,0.637 55.485,0.637 Z M64.468,7.995 C64.468,8.26366801 64.5091663,8.46083271 64.5915,8.5865 C64.6738337,8.7121673 64.8059991,8.80966632 64.988,8.879 L64.637,9.984 C64.2469981,9.94933316 63.9285012,9.85400078 63.6815,9.698 C63.4344988,9.54199922 63.2460007,9.30366827 63.116,8.983 C62.8819988,9.3296684 62.5895018,9.58749916 62.2385,9.7565 C61.8874982,9.92550085 61.4953355,10.01 61.062,10.01 C60.3773299,10.01 59.8356687,9.81500195 59.437,9.425 C59.0383313,9.03499805 58.839,8.52366983 58.839,7.891 C58.839,7.14566294 59.1098306,6.5758353 59.6515,6.1815 C60.1931694,5.7871647 60.9666616,5.59 61.972,5.59 L62.83,5.59 L62.83,5.2 C62.83,4.75799779 62.7281677,4.44816755 62.5245,4.2705 C62.3208323,4.09283244 61.9936689,4.004 61.543,4.004 C61.0403308,4.004 60.4336702,4.12533212 59.723,4.368 L59.333,3.237 C60.1910043,2.90766502 61.022996,2.743 61.829,2.743 C63.5883421,2.743 64.468,3.53165878 64.468,5.109 L64.468,7.995 Z M61.504,8.801 C62.0673362,8.801 62.5093317,8.51933615 62.83,7.956 L62.83,6.565 L62.141,6.565 C61.066328,6.565 60.529,6.96366268 60.529,7.761 C60.529,8.09033498 60.6113325,8.34599909 60.776,8.528 C60.9406675,8.71000091 61.1833317,8.801 61.504,8.801 Z M71.93,2.938 L71.93,9.815 L70.266,9.815 L70.266,4.199 L68.589,4.199 L68.42,6.045 C68.3333329,7.01567152 68.2293339,7.74366424 68.108,8.229 C67.9866661,8.71433576 67.7851681,9.08916534 67.5035,9.3535 C67.2218319,9.61783465 66.7906696,9.82366593 66.21,9.971 L65.794,8.736 C66.0800014,8.61466606 66.2858327,8.47816742 66.4115,8.3265 C66.5371673,8.17483257 66.6281664,7.93433498 66.6845,7.605 C66.7408336,7.27566502 66.799333,6.71667061 66.86,5.928 L67.094,2.938 L71.93,2.938 Z M76.74,2.743 C77.7540051,2.743 78.5448305,3.06583011 79.1125,3.7115 C79.6801695,4.35716989 79.964,5.2433277 79.964,6.37 C79.964,7.08933693 79.8340013,7.72416391 79.574,8.2745 C79.3139987,8.82483609 78.9413358,9.25166515 78.456,9.555 C77.9706642,9.85833485 77.3943367,10.01 76.727,10.01 C75.7129949,10.01 74.9200029,9.68716989 74.348,9.0415 C73.7759971,8.39583011 73.49,7.50533901 73.49,6.37 C73.49,5.65066307 73.6199987,5.01800273 73.88,4.472 C74.1400013,3.92599727 74.5148309,3.50133485 75.0045,3.198 C75.4941691,2.89466515 76.0726633,2.743 76.74,2.743 Z M76.74,4.004 C75.7433284,4.004 75.245,4.79265878 75.245,6.37 C75.245,7.18467074 75.3684988,7.7848314 75.6155,8.1705 C75.8625012,8.5561686 76.2329975,8.749 76.727,8.749 C77.2210025,8.749 77.5914988,8.55400195 77.8385,8.164 C78.0855012,7.77399805 78.209,7.17600403 78.209,6.37 C78.209,5.56399597 78.0855012,4.96816859 77.8385,4.5825 C77.5914988,4.1968314 77.2253358,4.004 76.74,4.004 Z M85.515,9.815 L85.515,6.942 L83.188,6.942 L83.188,9.815 L81.524,9.815 L81.524,2.938 L83.188,2.938 L83.188,5.681 L85.515,5.681 L85.515,2.938 L87.179,2.938 L87.179,9.815 L85.515,9.815 Z M91.391,5.109 C92.465672,5.109 93.2499975,5.31049798 93.744,5.7135 C94.2380025,6.11650201 94.485,6.69932952 94.485,7.462 C94.485,8.23333719 94.2206693,8.81833134 93.692,9.217 C93.1633307,9.61566866 92.4873375,9.815 91.664,9.815 L89.181,9.815 L89.181,2.938 L90.845,2.938 L90.845,5.109 L91.391,5.109 Z M95.252,2.938 L96.916,2.938 L96.916,9.815 L95.252,9.815 L95.252,2.938 Z M91.495,8.658 C92.3356709,8.658 92.756,8.25067074 92.756,7.436 C92.756,7.02866463 92.652001,6.72750097 92.444,6.5325 C92.235999,6.33749902 91.8806692,6.24 91.378,6.24 L90.845,6.24 L90.845,8.658 L91.495,8.658 Z M104.976,2.743 C105.990005,2.743 106.78083,3.06583011 107.3485,3.7115 C107.91617,4.35716989 108.2,5.2433277 108.2,6.37 C108.2,7.08933693 108.070001,7.72416391 107.81,8.2745 C107.549999,8.82483609 107.177336,9.25166515 106.692,9.555 C106.206664,9.85833485 105.630337,10.01 104.963,10.01 C103.948995,10.01 103.156003,9.68716989 102.584,9.0415 C102.011997,8.39583011 101.726,7.50533901 101.726,6.37 C101.726,5.65066307 101.855999,5.01800273 102.116,4.472 C102.376001,3.92599727 102.750831,3.50133485 103.2405,3.198 C103.730169,2.89466515 104.308663,2.743 104.976,2.743 Z M104.976,4.004 C103.979328,4.004 103.481,4.79265878 103.481,6.37 C103.481,7.18467074 103.604499,7.7848314 103.8515,8.1705 C104.098501,8.5561686 104.468998,8.749 104.963,8.749 C105.457002,8.749 105.827499,8.55400195 106.0745,8.164 C106.321501,7.77399805 106.445,7.17600403 106.445,6.37 C106.445,5.56399597 106.321501,4.96816859 106.0745,4.5825 C105.827499,4.1968314 105.461336,4.004 104.976,4.004 Z M113.114,3.393 C113.608002,3.393 114.049998,3.51866541 114.44,3.77 C114.830002,4.02133459 115.135499,4.38749759 115.3565,4.8685 C115.577501,5.3495024 115.688,5.91933004 115.688,6.578 C115.688,7.28867022 115.555835,7.90183075 115.2915,8.4175 C115.027165,8.93316925 114.656669,9.32749863 114.18,9.6005 C113.703331,9.87350136 113.14867,10.01 112.516,10.01 C111.536662,10.01 110.758836,9.67850332 110.1825,9.0155 C109.606164,8.35249669 109.318,7.34500676 109.318,5.993 C109.318,4.99632835 109.398166,4.17733654 109.5585,3.536 C109.718834,2.89466346 109.998331,2.36816873 110.397,1.9565 C110.795669,1.54483127 111.354663,1.22200117 112.074,0.988 C112.602669,0.8146658 113.018665,0.660834005 113.322,0.5265 C113.625335,0.392165995 113.954665,0.21666775 114.31,0 L114.947,1.118 C114.643665,1.31733433 114.323002,1.49283257 113.985,1.6445 C113.646998,1.79616742 113.239669,1.94999922 112.763,2.106 C112.364331,2.23600065 112.045835,2.3876658 111.8075,2.561 C111.569165,2.7343342 111.380667,2.97916509 111.242,3.2955 C111.103333,3.61183492 111.008,4.03866398 110.956,4.576 C111.467336,3.78732939 112.186662,3.393 113.114,3.393 Z M112.503,8.749 C112.945002,8.749 113.293832,8.59083492 113.5495,8.2745 C113.805168,7.95816508 113.933,7.4100039 113.933,6.63 C113.933,5.91066307 113.829001,5.40150149 113.621,5.1025 C113.412999,4.8034985 113.101002,4.654 112.685,4.654 C112.364332,4.654 112.063168,4.7406658 111.7815,4.914 C111.499832,5.0873342 111.263668,5.35166489 111.073,5.707 L111.073,6.578 C111.073,7.28867022 111.198665,7.82816483 111.45,8.1965 C111.701335,8.56483517 112.052331,8.749 112.503,8.749 Z M120.576,9.841 C120.298665,10.6903376 119.878336,11.3511643 119.315,11.8235 C118.751664,12.2958357 117.980338,12.5709996 117.001,12.649 L116.832,11.44 C117.282669,11.3706663 117.644499,11.2731673 117.9175,11.1475 C118.190501,11.0218327 118.409333,10.855001 118.574,10.647 C118.738667,10.438999 118.890333,10.1616684 119.029,9.815 L118.457,9.815 L116.273,2.938 L118.041,2.938 L119.536,8.71 L121.096,2.938 L122.812,2.938 L120.576,9.841 Z M127.778,6.058 C128.956673,6.18800065 129.546,6.73832848 129.546,7.709 C129.546,8.41967022 129.275169,8.9483316 128.7335,9.295 C128.191831,9.6416684 127.461671,9.815 126.543,9.815 L123.826,9.815 L123.826,3.016 C124.753338,2.83399909 125.589663,2.743 126.335,2.743 C127.227671,2.743 127.929664,2.90333173 128.441,3.224 C128.952336,3.54466827 129.208,4.0083303 129.208,4.615 C129.208,5.00500195 129.086668,5.32133212 128.844,5.564 C128.601332,5.80666788 128.246002,5.9713329 127.778,6.058 Z M126.322,3.874 C126.087999,3.874 125.810668,3.89566645 125.49,3.939 L125.49,5.681 L126.478,5.681 C127.197337,5.681 127.557,5.37333641 127.557,4.758 C127.557,4.16866372 127.145337,3.874 126.322,3.874 Z M126.504,8.658 C127.379338,8.658 127.817,8.30700351 127.817,7.605 C127.817,7.28433173 127.717334,7.04816743 127.518,6.8965 C127.318666,6.74483258 126.989336,6.669 126.53,6.669 L125.49,6.669 L125.49,8.658 L126.504,8.658 Z M136.839,9.815 L135.24,9.815 L135.24,7.059 C135.24,6.55633082 135.261666,6.08183557 135.305,5.6355 C135.348334,5.18916443 135.396,4.85333446 135.448,4.628 L132.887,9.815 L131.106,9.815 L131.106,2.938 L132.718,2.938 L132.718,5.694 C132.718,6.17066905 132.694167,6.64299766 132.6465,7.111 C132.598833,7.57900234 132.549,7.91266567 132.497,8.112 L135.032,2.938 L136.839,2.938 L136.839,9.815 Z" id="Салоныобуви" fill-rule="nonzero"></path>
                <g id="Shape-2" transform="translate(0.000000, 1.815000)">
                    <path d="M11.8933314,25.7340298 L11.851693,25.788205 L14.0654102,28.5669574 C12.961313,29.1565571 11.7894137,29.6760278 10.5773382,30.0980685 C15.7362935,28.7609706 20.2241642,28.5514237 23.6661687,30.0980685 C23.2169381,28.6954618 22.4047145,25.1734113 24.6851341,23.0354867 C25.7007822,21.9142428 26.226661,21.3448039 27.02341,20.8160928 C27.6008851,20.4326867 27.8304733,19.460101 27.8304733,19.460101 L24.6549099,20.3801916 L24.8200132,19.4097059 C24.8200132,19.4097059 27.7722485,18.4585411 29.3491598,17.4977158 C30.9256966,16.5373105 30.9234851,15.7243035 30.9234851,15.7243035 L26.331322,16.9778251 L26.6718371,15.7923324 C26.6718371,15.7923324 31.1224865,14.7869923 32.7672061,13.7152964 C33.6483436,13.1408174 35.3446534,11.2477211 34.9050061,11.7545913 C34.4657274,12.2614615 27.0208298,14.2587012 27.0208298,14.2587012 L27.1361798,13.5796587 C27.1361798,13.5796587 31.9597741,12.2287071 33.8771946,11.3430441 C35.7942526,10.457808 37.9453219,8.71841015 39.2804816,7.10037636 C40.6156354,5.48234256 41.1404145,4.99436619 42.2367713,3.22305397 C43.3327596,1.45174175 42.9262792,0 42.9262792,0 C39.6445804,4.27500901 35.9552955,6.89376274 31.2330449,8.72009022 C28.2469056,9.87492861 24.8292219,10.5930326 22.5031095,13.2122064 C21.2807196,14.5879389 21.5895422,16.666228 22.0973663,18.3346569 C22.7419124,20.4520075 21.133677,23.2303399 18.3181639,25.6693611 L16.1803638,22.4332866 C17.8394523,20.7875386 19.3216486,18.8595878 20.7419341,16.7581978 C20.8388608,16.6372538 20.8211685,16.4394605 20.7028759,16.3155763 C20.5842085,16.1925322 20.4095279,16.1908521 20.3122387,16.3117962 C17.8685647,18.9263566 15.6987035,21.2204997 13.1087242,22.9317634 C11.8645876,23.7535839 10.5327451,24.2671744 8.93999044,24.8815481 C7.25400108,25.5320433 5.52968457,25.8625342 3.83263151,26.3538638 C3.11585415,26.5613174 2.3305375,26.7771645 1.65429277,27.1807314 C1.10225021,27.5103891 0.391370264,28.0970418 0.324293236,28.8655409 L0.323924647,28.8663809 L0.324293236,28.8663809 C0.278968959,29.3862647 0.387315793,29.6096721 0.815168262,30.1178024 C2.44145841,30.300482 4.46317734,30.4625739 7.19061597,30.34583 C4.95552067,28.9848049 7.27832186,27.6850815 9.39216974,26.8989486 C10.2722015,26.5722378 11.1032231,26.1812715 11.8933314,25.7340298 Z M0.331665002,31.5485433 C0.123817453,31.5061355 -0.0316965984,31.3419366 0.00552477784,31.1046687 C0.042746154,30.8678208 0.233270052,30.801892 0.441486189,30.8443067 C8.96910288,32.328376 15.6028826,28.030273 23.0636296,30.4999484 C23.9860429,30.8056721 23.6871722,32.1965184 22.5915525,31.8786211 C14.148693,29.4307796 8.56778272,33.2459533 0.331665002,31.5485433 Z M14.5636509,23.8955287 L16.8827663,26.8069857 C16.4873375,27.0938017 16.0753343,27.3734844 15.6496873,27.6430867 L13.6884108,24.5733112 C13.9858072,24.355784 14.2773062,24.1294365 14.5636509,23.8955287 Z M25.7700647,22.9384767 C25.8739885,22.922943 28.3456691,20.5049158 28.3456691,20.5049158 L31.2938499,19.6545342 C31.2938499,19.6545342 31.388565,20.2911688 30.2022847,21.107116 C29.016379,21.9230631 25.7700647,22.9384767 25.7700647,22.9384767 Z M28.6493315,18.9171163 C28.6684981,18.8054126 29.7619002,17.7379238 30.9183248,17.4930956 C32.0386339,17.2558277 35.6118316,15.9120164 35.75998,15.6369539 C35.9084969,15.3614713 34.9879264,17.1987124 33.6446577,17.7484174 C32.3013951,18.2989624 28.5748888,19.5545909 28.5748888,19.5545909 L28.6493315,18.9171163 Z M32.1912053,14.7722917 L31.5429733,16.3995658 C31.5429733,16.3995658 35.3148038,15.0767485 37.0435434,13.6493676 C38.2062341,12.6898024 39.3169658,10.6102464 39.3169658,10.6102464 L35.9855197,12.7229768 L32.1912053,14.7722917 Z M41.8804069,4.67101557 C41.8804069,4.67101557 40.6053209,7.00672648 39.0004029,8.50004297 C37.927261,9.4982428 35.9822024,10.9516646 35.9822024,10.9516646 L35.8635351,11.8490743 C35.8635351,11.8490743 39.4492649,9.5188236 40.2102607,8.53615749 C41.5085677,6.8597483 41.8804069,4.67101557 41.8804069,4.67101557 Z" id="Shape"></path>
                </g>
            </g>
        </g>
    </g>
</svg>