<svg width="16px" height="16px" viewBox="0 0 16 16" version="1.1" xmlns="http://www.w3.org/2000/svg" xmlns:xlink="http://www.w3.org/1999/xlink">
    <g stroke="none" stroke-width="1" fill-rule="evenodd">
        <g transform="translate(-111.000000, -364.000000)">
            <g transform="translate(111.000000, 364.000000)">
                <g>
                    <path d="M3.7369248,3.04148754 L2.86419753,3.04148754 L8.57104377,0.0975623074 C9.01459035,-0.132344235 9.55331089,0.0583099709 9.77418631,0.519992214 L10.1117845,1.23027259 L3.7369248,3.04148754 Z M12.0906846,1.28260904 C12.4857464,1.28260904 12.8484848,1.55550623 12.956229,1.97232866 L13.2363636,3.04148754 L10.9737374,3.04148754 L5.78226712,3.04148754 L10.3560224,1.74242212 L11.8536476,1.3162539 C11.9326599,1.29382399 12.0116902,1.28260904 12.0906846,1.28260904 Z M14.1719416,3.69569315 C14.6675645,3.69569315 15.0698092,4.11438474 15.0680135,4.63027259 L15.0680135,7.18167446 L14.8776655,7.18167446 L14.5993266,7.18167446 L14.3209877,7.18167446 L9.7382716,7.18167446 C9.67721661,7.18167446 9.61616162,7.18543147 9.55690236,7.19288941 C9.2013468,7.23588006 8.88350168,7.40784268 8.64646465,7.66206698 C8.37888215,7.94804829 8.21369248,8.3386838 8.21369248,8.76859034 L8.21369248,9.411581 L8.21369248,9.70130063 L8.21369248,9.99102025 L8.21369248,10.847095 C8.21369248,11.7237305 8.89786756,12.4358801 9.74006734,12.4358801 L15.0680135,12.4358801 L15.0680135,15.0433567 C15.0680135,15.5592632 14.6657868,15.9779361 14.1701459,15.9779361 L0.897867565,15.9779361 C0.402244669,15.9779361 -2.62190269e-12,15.5592632 -2.62190269e-12,15.0433567 L-2.62190269e-12,5.80784268 L-2.62190269e-12,4.74242212 L-2.62190269e-12,4.63027259 C-2.62190269e-12,4.54616044 0.0125701459,4.46391745 0.0323232323,4.38541277 C0.0646464646,4.26017913 0.122109989,4.14616044 0.197530864,4.04709502 C0.362738496,3.83214175 0.615937149,3.69569315 0.8996633,3.69569315 L1.43479237,3.69569315 L1.59461279,3.69569315 L2.45656566,3.69569315 L3.48013468,3.69569315 L11.2861953,3.69569315 L13.4105499,3.69569315 L13.6888889,3.69569315 L13.9672278,3.69569315 L14.1719416,3.69569315 Z M15.6983165,8.0751324 C15.87789,8.24520717 15.9910213,8.49195483 15.9910213,8.76487072 L15.9910213,10.8452446 C15.9910213,11.1181231 15.87789,11.364852 15.6983165,11.5349455 C15.6085297,11.6209268 15.5025814,11.6882165 15.3840629,11.729338 C15.2924804,11.7611137 15.1955107,11.7798053 15.0931538,11.7798053 L15.0698092,11.7798053 L9.74006734,11.7798053 C9.24442649,11.7798053 8.84219978,11.3611137 8.84219978,10.8452259 L8.84219978,9.80971184 L8.84219978,9.51999221 L8.84219978,9.23027259 L8.84219978,8.76487072 C8.84219978,8.24896418 9.24442649,7.83029128 9.74006734,7.83029128 L13.769697,7.83029128 L14.7735129,7.83029128 L15.0518519,7.83029128 L15.0698092,7.83029128 L15.0931538,7.83029128 C15.1955107,7.83029128 15.2924624,7.84898287 15.3840629,7.88073988 C15.5025814,7.92373053 15.6085297,7.98915109 15.6983165,8.0751324 Z M11.6148148,9.99102025 L11.6148148,9.68073988 C11.6148148,9.42277726 11.4136925,9.21345016 11.165881,9.21345016 L10.9432099,9.21345016 L10.867789,9.21345016 C10.7636543,9.21345016 10.6684624,9.2526838 10.5912458,9.31436605 C10.4852974,9.3984782 10.4188552,9.53120717 10.4188552,9.68073988 L10.4188552,9.99102025 C10.4188552,10.2489642 10.6199776,10.45831 10.867789,10.45831 L11.165881,10.45831 C11.4136925,10.45831 11.6148148,10.2489642 11.6148148,9.99102025 Z" id="Combined-Shape"></path>
                </g>
            </g>
        </g>
    </g>
</svg>