<?xml version="1.0" encoding="UTF-8"?>
<svg width="32px" height="32px" viewBox="0 0 32 32" version="1.1" xmlns="http://www.w3.org/2000/svg" xmlns:xlink="http://www.w3.org/1999/xlink">
    <!-- Generator: Sketch 52.3 (67297) - http://www.bohemiancoding.com/sketch -->
    <title>ok</title>
    <desc>Created with Sketch.</desc>
    <g id="Page-1" stroke="none" stroke-width="1" fill="none" fill-rule="evenodd">
        <g id="Интерфейс-быстрого-заказа" transform="translate(-188.000000, -602.000000)" fill="#D0271E">
            <g id="Group-12" transform="translate(60.000000, 70.000000)">
                <g id="Group-17" transform="translate(32.000000, 471.000000)">
                    <g id="odnoklassniki-logo-2" transform="translate(96.000000, 61.000000)">
                        <g id="odnoklassniki-logo">
                            <path d="M15.9742041,13.2267755 C14.4453878,13.2323265 13.2179592,12.0248163 13.2065306,10.5031837 C13.1947755,8.96163265 14.4225306,7.72342857 15.9598367,7.72506122 C17.4844082,7.72636735 18.7007347,8.94204082 18.7062857,10.4698776 C18.7118367,11.9970612 17.4981224,13.2212245 15.9742041,13.2267755 Z M15.9591837,-4.35207426e-13 C24.7732245,-4.35207426e-13 31.9183673,7.14546939 31.9183673,15.9591837 C31.9183673,24.772898 24.7732245,31.9183673 15.9591837,31.9183673 C7.14514286,31.9183673 -4.35207426e-13,24.772898 -4.35207426e-13,15.9591837 C-4.35207426e-13,7.14546939 7.14514286,-4.35207426e-13 15.9591837,-4.35207426e-13 Z M15.9820408,4.85322449 C12.88,4.84473469 10.3595102,7.35183673 10.3422041,10.4620408 C10.3239184,13.5386122 12.843102,16.0852245 15.9147755,16.0956735 C19.0181224,16.1061224 21.5539592,13.6176327 21.5696327,10.5472653 C21.5856327,7.40440816 19.0906122,4.86171429 15.9820408,4.85322449 Z M22.2782041,18.3043265 C22.7265306,17.8435918 22.7307755,17.2649796 22.3666939,16.6716735 C22.0486531,16.1524898 21.4948571,15.9340408 20.9018776,16.0868571 C20.5965714,16.164898 20.3330612,16.3196735 20.0868571,16.5077551 C17.6,18.1805714 14.196898,18.1338776 11.7198367,16.4316735 C11.5983673,16.3480816 11.4716735,16.2690612 11.338449,16.2066939 C10.651102,15.882449 9.99020408,16.0333061 9.59608163,16.597551 C9.136,17.2564898 9.19444898,17.8968163 9.77665306,18.4555102 C9.92685714,18.6004898 10.0969796,18.7252245 10.2622041,18.8545306 C11.5915102,19.8938776 13.1441633,20.3177143 14.8659592,20.4976327 C14.7441633,20.6282449 14.666449,20.7173878 14.5825306,20.8013061 C13.3201633,22.0675918 12.0581224,23.3348571 10.7921633,24.5982041 C10.5302857,24.8587755 10.3428571,25.1506939 10.3239184,25.5314286 C10.2971429,26.096 10.6465306,26.6573061 11.1960816,26.923102 C11.7133061,27.1745306 12.2435918,27.0948571 12.6893061,26.6553469 C13.6816327,25.6767347 14.6684082,24.692898 15.6391837,23.6930612 C15.882449,23.4429388 16.0143673,23.3880816 16.2902857,23.6760816 C17.2352653,24.6654694 18.2187755,25.6192653 19.184,26.5903673 C19.4357551,26.8440816 19.7195102,27.0246531 20.0832653,27.0497959 C20.6576327,27.0893061 21.243102,26.7222857 21.504,26.1639184 C21.7430204,25.653551 21.6525714,25.108898 21.2182857,24.6693878 C19.9438367,23.3802449 18.6589388,22.1012245 17.3802449,20.8156735 C17.2914286,20.7268571 17.2244898,20.6507755 17.0817959,20.496 C18.0241633,20.3830204 18.976,20.213551 19.8445714,19.876898 C20.7634286,19.5206531 21.5908571,19.0099592 22.2782041,18.3043265 Z" id="ok"></path>
                        </g>
                    </g>
                </g>
            </g>
        </g>
    </g>
</svg>