<?xml version="1.0" encoding="UTF-8"?>
<svg width="18px" height="14px" viewBox="0 0 18 14" version="1.1" xmlns="http://www.w3.org/2000/svg" xmlns:xlink="http://www.w3.org/1999/xlink">
    <!-- Generator: Sketch 52.3 (67297) - http://www.bohemiancoding.com/sketch -->
    <title>Combined Shape Copy 3</title>
    <desc>Created with Sketch.</desc>
    <g id="Page-1" stroke="none" stroke-width="1" fill="none" fill-rule="evenodd">
        <g id="Стили,-иконки" transform="translate(-130.000000, -369.000000)" fill="#808086">
            <g id="Combined-Shape-Copy-3" transform="translate(130.000000, 369.000000)">
                <path d="M18,6.54545455 C15.8524926,10.9090909 12.8188042,13.0909091 8.89893478,13.0909091 C4.97906538,13.0909091 2.01275379,10.9090909 0,6.54545455 C2.01275379,2.18181818 4.97906538,-4.17443857e-14 8.89893478,-4.17443857e-14 C12.8188042,-4.17443857e-14 15.8524926,2.18181818 18,6.54545455 Z M9,10.6363636 C11.2593467,10.6363636 13.0909091,8.80480125 13.0909091,6.54545455 C13.0909091,4.28610784 11.2593467,2.45454545 9,2.45454545 C6.7406533,2.45454545 4.90909091,4.28610784 4.90909091,6.54545455 C4.90909091,8.80480125 6.7406533,10.6363636 9,10.6363636 Z M9,9 C7.64439198,9 6.54545455,7.90106257 6.54545455,6.54545455 C6.54545455,5.18984652 7.64439198,4.09090909 9,4.09090909 C10.355608,4.09090909 11.4545455,5.18984652 11.4545455,6.54545455 C11.4545455,7.90106257 10.355608,9 9,9 Z" id="Combined-Shape-Copy"></path>
            </g>
        </g>
    </g>
</svg>