<?xml version="1.0" encoding="UTF-8"?>
<svg width="18px" height="15px" viewBox="0 0 18 15" version="1.1" xmlns="http://www.w3.org/2000/svg" xmlns:xlink="http://www.w3.org/1999/xlink">
    <!-- Generator: Sketch 52.3 (67297) - http://www.bohemiancoding.com/sketch -->
    <title>Combined Shape 2 Copy</title>
    <desc>Created with Sketch.</desc>
    <g id="Page-1" stroke="none" stroke-width="1" fill="none" fill-rule="evenodd">
        <g id="Стили,-иконки" transform="translate(-91.000000, -375.000000)" fill="#808086">
            <g id="Combined-Shape-2-Copy" transform="translate(91.000000, 375.000000)">
                <path d="M13.2828298,12.9609584 C11.9712093,13.6979857 10.5099109,14.0664994 8.89893478,14.0664994 C4.97906538,14.0664994 2.01275379,11.8846812 0,7.52104485 C0.903316064,5.56266184 1.99869578,4.04373617 3.28613915,2.96426783 L1.47895515,1.15708382 L2.63603897,-4.97646369e-12 L16.5210449,13.8850059 L15.363961,15.0420897 L13.2828298,12.9609584 Z M11.2560463,10.934175 L10.058249,9.73637768 C9.73782015,9.88972036 9.37893807,9.97559031 9,9.97559031 C7.64439198,9.97559031 6.54545455,8.87665288 6.54545455,7.52104485 C6.54545455,7.14210678 6.63132449,6.78322471 6.78466717,6.46279585 L5.5868699,5.26499858 C5.15853553,5.9117165 4.90909091,6.68725022 4.90909091,7.52104485 C4.90909091,9.78039156 6.7406533,11.6119539 9,11.6119539 C9.83379464,11.6119539 10.6093284,11.3625093 11.2560463,10.934175 Z M12.9307454,8.65834281 C13.0350275,8.29728279 13.0909091,7.91568975 13.0909091,7.52104485 C13.0909091,5.26169815 11.2593467,3.43013576 9,3.43013576 C8.60535511,3.43013576 8.22376207,3.48601738 7.86270204,3.59029943 L5.77968977,1.50728717 C6.74197921,1.15282259 7.78172755,0.975590309 8.89893478,0.975590309 C12.8188042,0.975590309 15.8524926,3.15740849 18,7.52104485 C17.2680019,9.00843137 16.4330427,10.242323 15.4951225,11.2227199 L12.9307454,8.65834281 Z M9.36600524,5.09360263 L11.4274422,7.15503961 C11.2685779,6.09243661 10.4286082,5.25246696 9.36600524,5.09360264 Z" id="Combined-Shape"></path>
            </g>
        </g>
    </g>
</svg>