<?xml version="1.0" encoding="UTF-8"?>
<svg width="62px" height="12px" viewBox="0 0 62 12" version="1.1" xmlns="http://www.w3.org/2000/svg" xmlns:xlink="http://www.w3.org/1999/xlink">
    <!-- Generator: Sketch 52.3 (67297) - http://www.bohemiancoding.com/sketch -->
    <title>Group 19</title>
    <desc>Created with Sketch.</desc>
    <g id="Page-1" stroke="none" stroke-width="1" fill="none" fill-rule="evenodd">
        <g id="Страница-товара" transform="translate(-711.000000, -622.000000)">
            <g id="Group-19" transform="translate(711.000000, 622.000000)">
                <g id="Group-18">
                    <g id="Group-14">
                        <ellipse id="Oval-Copy-3" fill="#EB0014" cx="6.15384615" cy="6" rx="6.15384615" ry="6"></ellipse>
                        <ellipse id="Oval-Copy-4" fill="#F79F14" cx="13.8461538" cy="6" rx="6.15384615" ry="6"></ellipse>
                        <path d="M12.3076923,5.99931908 C12.3076923,7.89410751 11.4068654,9.58344603 10,10.6830368 C8.59313464,9.58344603 7.69230769,7.89410751 7.69230769,5.99931908 C7.69230769,4.10453064 8.59313464,2.41519212 10,1.31560135 C11.4068654,2.41519212 12.3076923,4.10453064 12.3076923,5.99931908 Z" id="Path" fill="#FF5F00"></path>
                    </g>
                </g>
                <g id="visa-pay-logo-2" transform="translate(26.000000, 0.000000)">
                    <g id="visa-pay-logo">
                        <polygon id="Path" fill="#005B9C" points="14.36475 0.59925 12.5415 11.29875 15.4575 11.29875 17.28225 0.59925"></polygon>
                        <path d="M10.0965,0.61125 L7.2405,7.908 L6.936,6.80625 C6.37275,5.47875 4.77375,3.57225 2.8965,2.37075 L5.508,11.2935 L8.5935,11.28825 L13.18575,0.609 L10.0965,0.61125 Z" id="Path" fill="#005B9C"></path>
                        <path d="M5.829,1.377 C5.6595,0.72525 5.16825,0.531 4.5585,0.50775 L0.0375,0.50775 L0,0.72075 C3.51825,1.57425 5.84625,3.63075 6.81225,6.1035 L5.829,1.377 Z" id="Path" fill="#F79F1A"></path>
                        <path d="M23.19225,2.6505 C24.14625,2.6355 24.83775,2.844 25.37475,3.06 L25.638,3.18375 L26.0325,0.86475 C25.455,0.648 24.54975,0.4155 23.42025,0.4155 C20.53875,0.4155 18.50775,1.86675 18.492,3.9465 C18.47325,5.48325 19.93875,6.34125 21.04575,6.8535 C22.182,7.3785 22.563,7.71225 22.55775,8.181 C22.54875,8.89725 21.65175,9.22575 20.814,9.22575 C19.64625,9.22575 19.026,9.0645 18.06825,8.6655 L17.6925,8.4945 L17.28225,10.88925 C17.96475,11.1885 19.224,11.44575 20.53125,11.45925 C23.5965,11.45925 25.5885,10.02525 25.6095,7.803 C25.62225,6.58725 24.8445,5.6595 23.15925,4.89825 C22.13925,4.40175 21.51525,4.07175 21.52125,3.57075 C21.52125,3.126 22.05075,2.6505 23.19225,2.6505 Z" id="Path" fill="#005B9C"></path>
                        <path d="M33.516,0.61125 L31.263,0.61125 C30.56325,0.61125 30.04275,0.80175 29.73525,1.49925 L25.4055,11.30475 L28.46775,11.30475 C28.46775,11.30475 28.96725,9.98625 29.0805,9.6975 C29.41575,9.6975 32.391,9.702 32.81475,9.702 C32.90175,10.0755 33.17025,11.30475 33.17025,11.30475 L35.8755,11.30475 L33.516,0.61125 Z M29.91975,7.5075 C30.15975,6.89325 31.0815,4.51725 31.0815,4.51725 C31.06575,4.5465 31.31925,3.8985 31.47,3.49575 L31.6665,4.41825 C31.6665,4.41825 32.22525,6.97275 32.34225,7.5075 L29.91975,7.5075 Z" id="Shape" fill="#005B9C" fill-rule="nonzero"></path>
                    </g>
                </g>
            </g>
        </g>
    </g>
</svg>