<?xml version="1.0" encoding="UTF-8"?>
<svg width="44px" height="44px" viewBox="0 0 44 44" version="1.1" xmlns="http://www.w3.org/2000/svg" xmlns:xlink="http://www.w3.org/1999/xlink">
    <!-- Generator: Sketch 52.3 (67297) - http://www.bohemiancoding.com/sketch -->
    <title>Group 17 Copy 15</title>
    <desc>Created with Sketch.</desc>
    <g id="Page-1" stroke="none" stroke-width="1" fill="none" fill-rule="evenodd">
        <g id="Избранное" transform="translate(-903.000000, -724.000000)">
            <g id="Group-17-Copy-15" transform="translate(903.000000, 724.000000)">
                <path d="M22.6674807,42.6982856 L21.3523935,43.7085642 C20.785211,44.1442861 19.9815532,44.0855131 19.4837673,43.571908 L18.3295853,42.381047 C17.9359814,41.9749347 17.337655,41.8437543 16.8103004,42.0479506 L15.2639155,42.6467242 C14.5969769,42.9049686 13.8424277,42.6221117 13.5094742,41.9890389 L12.7374777,40.5211765 C12.4742082,40.0206 11.9370682,39.7261294 11.3735587,39.7734498 L9.72115508,39.9122094 C9.00849175,39.9720549 8.36418017,39.4880294 8.22303294,38.7867768 L7.89576454,37.1608303 C7.78415812,36.6063434 7.35172035,36.172439 6.79770808,36.0590499 L5.17315362,35.726554 C4.47250132,35.5831522 3.99062566,34.937171 4.05271964,34.2245498 L4.19669269,32.5722439 C4.24579097,32.0087677 3.95308899,31.4705818 3.45345673,31.2056693 L1.98836317,30.4288548 C1.35648459,30.0938233 1.07608356,29.33822 1.33638825,28.6719626 L1.93993891,27.1271571 C2.14576424,26.6003412 2.01651103,26.0014745 1.61173602,25.6065002 L0.42479653,24.4482998 C-0.0871172916,23.9487809 -0.143327273,23.14477 0.294099799,22.5788526 L1.30833197,21.2666986 C1.65420962,20.8192224 1.6988765,20.2081914 1.42175121,19.7151539 L0.60912456,18.2693983 C0.258647712,17.6458599 0.43118258,16.8585775 1.01029429,16.4388474 L2.35304093,15.4656478 C2.81094993,15.1337632 3.02591826,14.5600701 2.89889372,14.0089122 L2.5264141,12.3927278 C2.36576778,11.6956855 2.75306975,10.9889126 3.42694991,10.7493737 L4.98942966,10.1939713 C5.52227296,10.0045657 5.89012728,9.51468757 5.92349427,8.95006092 L6.02133776,7.29438145 C6.06353657,6.58030528 6.63422873,6.01130041 7.34828359,5.97135884 L9.00391363,5.87874907 C9.56852343,5.8471669 10.0594624,5.48079084 10.2505177,4.9484381 L10.8107576,3.38739683 C11.0523828,2.71413707 11.7602311,2.32899761 12.4566122,2.49188918 L14.0712632,2.86957471 C14.6218982,2.99837459 15.1961488,2.78518219 15.5294143,2.32823142 L16.5066633,0.988294628 C16.92814,0.410394773 17.7157987,0.240322428 18.3380893,0.592850636 L19.7809519,1.41023363 C20.2730029,1.68898096 20.8840428,1.64624381 21.3325193,1.30171443 L22.6476065,0.291435834 C23.214789,-0.144286104 24.0184468,-0.085513083 24.5162327,0.42809202 L25.6704147,1.61895297 C26.0640186,2.0250653 26.662345,2.1562457 27.1896996,1.95204944 L28.7360845,1.3532758 C29.4030231,1.09503138 30.1575723,1.37788833 30.4905258,2.0109611 L31.2625223,3.47882354 C31.5257918,3.97940005 32.0629318,4.27387055 32.6264413,4.22655018 L34.2788449,4.08779058 C34.9915082,4.0279451 35.6358198,4.51197058 35.7769671,5.21322322 L36.1042355,6.83916966 C36.2158419,7.39365664 36.6482796,7.82756099 37.2022919,7.94095012 L38.8268464,8.27344603 C39.5274987,8.41684782 40.0093743,9.06282898 39.9472804,9.77545017 L39.8033073,11.4277561 C39.754209,11.9912323 40.046911,12.5294182 40.5465433,12.7943307 L42.0116368,13.5711452 C42.6435154,13.9061767 42.9239164,14.66178 42.6636117,15.3280374 L42.0600611,16.8728429 C41.8542358,17.3996588 41.983489,17.9985255 42.388264,18.3934998 L43.5752035,19.5517002 C44.0871173,20.0512191 44.1433273,20.85523 43.7059002,21.4211474 L42.691668,22.7333014 C42.3457904,23.1807776 42.3011235,23.7918086 42.5782488,24.2848461 L43.3908754,25.7306017 C43.7413523,26.3541401 43.5688174,27.1414225 42.9897057,27.5611526 L41.6469591,28.5343522 C41.1890501,28.8662368 40.9740817,29.4399299 41.1011063,29.9910878 L41.4735859,31.6072722 C41.6342322,32.3043145 41.2469303,33.0110874 40.5730501,33.2506263 L39.0105703,33.8060287 C38.477727,33.9954343 38.1098727,34.4853124 38.0765057,35.0499391 L37.9786622,36.7056186 C37.9364634,37.4196947 37.3657713,37.9886996 36.6517164,38.0286412 L34.9960864,38.1212509 C34.4314766,38.1528331 33.9405376,38.5192092 33.7494823,39.0515619 L33.1892424,40.6126032 C32.9476172,41.2858629 32.2397689,41.6710024 31.5433878,41.5081108 L29.9287368,41.1304253 C29.3781018,41.0016254 28.8038512,41.2148178 28.4705857,41.6717686 L27.4933367,43.0117054 C27.07186,43.5896052 26.2842013,43.7596776 25.6619107,43.4071494 L24.2190481,42.5897664 C23.7269971,42.311019 23.1159572,42.3537562 22.6674807,42.6982856 Z" id="Star-Copy" fill="#FC5252"></path>
                <text id="-40%" transform="translate(22.000000, 21.000000) rotate(-10.000000) translate(-22.000000, -21.000000) " font-family="FiraSans-Bold, Fira Sans" font-size="14" font-weight="bold" line-spacing="18" fill="#FFFFFF">
                    <tspan x="5" y="28">-40%</tspan>
                </text>
            </g>
        </g>
    </g>
</svg>