<?xml version="1.0" encoding="UTF-8"?>
<svg width="14px" height="14px" viewBox="0 0 14 14" version="1.1" xmlns="http://www.w3.org/2000/svg" xmlns:xlink="http://www.w3.org/1999/xlink">
    <!-- Generator: Sketch 52.3 (67297) - http://www.bohemiancoding.com/sketch -->
    <title>Shape</title>
    <desc>Created with Sketch.</desc>
    <g id="Page-1" stroke="none" stroke-width="1" fill="none" fill-rule="evenodd" opacity="0.800000012">
        <g id="Стили,-иконки" transform="translate(-505.000000, -227.000000)" fill="#292930" fill-rule="nonzero" stroke="#292930" stroke-width="0.5">
            <g id="Shape-3-Copy-3" transform="translate(506.000000, 228.000000)">
                <path d="M11.8530612,11.1477551 L8.96816327,8.26285714 C9.68326531,7.39102041 10.1142857,6.27428571 10.1142857,5.05714286 C10.1142857,2.26530612 7.84897959,0 5.05714286,0 C2.26285714,0 0,2.26530612 0,5.05714286 C0,7.84897959 2.26285714,10.1142857 5.05714286,10.1142857 C6.27428571,10.1142857 7.38857143,9.68571429 8.26040816,8.97061224 L11.1453061,11.8530612 C11.3412245,12.0489796 11.6571429,12.0489796 11.8530612,11.8530612 C12.0489796,11.6595918 12.0489796,11.3412245 11.8530612,11.1477551 Z M5.07692308,9.23076923 C2.78540553,9.23076923 0.923076923,7.36787782 0.923076923,5.07817839 C0.923076923,2.78847897 2.78540553,0.923076923 5.07692308,0.923076923 C7.36593075,0.923076923 9.23076923,2.78847897 9.23076923,5.07817839 C9.23076923,7.36787782 7.36593075,9.23076923 5.07692308,9.23076923 Z" id="Shape"></path>
            </g>
        </g>
    </g>
</svg>