<?xml version="1.0" encoding="UTF-8"?>
<svg width="20px" height="20px" viewBox="0 0 20 20" version="1.1" xmlns="http://www.w3.org/2000/svg" xmlns:xlink="http://www.w3.org/1999/xlink">
    <g stroke="none" stroke-width="1" fill-rule="evenodd">
        <g transform="translate(-780.000000, -76.000000)" fill-rule="nonzero">
            <g transform="translate(62.000000, 56.000000)">
                <g transform="translate(718.000000, 20.000000)">
                    <path d="M19.755102,18.5795918 L14.9469388,13.7714286 C16.1387755,12.3183673 16.8571429,10.4571429 16.8571429,8.42857143 C16.8571429,3.7755102 13.0816327,0 8.42857143,0 C3.77142857,0 0,3.7755102 0,8.42857143 C0,13.0816327 3.77142857,16.8571429 8.42857143,16.8571429 C10.4571429,16.8571429 12.3142857,16.1428571 13.7673469,14.9510204 L18.5755102,19.755102 C18.9020408,20.0816327 19.4285714,20.0816327 19.755102,19.755102 C20.0816327,19.4326531 20.0816327,18.9020408 19.755102,18.5795918 Z M8.46153846,15.3846154 C4.64234255,15.3846154 1.53846154,12.2797964 1.53846154,8.46363066 C1.53846154,4.64746496 4.64234255,1.53846154 8.46153846,1.53846154 C12.2765512,1.53846154 15.3846154,4.64746496 15.3846154,8.46363066 C15.3846154,12.2797964 12.2765512,15.3846154 8.46153846,15.3846154 Z" id="Shape"></path>
                </g>
            </g>
        </g>
    </g>
</svg>