<svg width="18px" height="22px" viewBox="0 0 18 22" version="1.1" xmlns="http://www.w3.org/2000/svg" xmlns:xlink="http://www.w3.org/1999/xlink">
    <g stroke="none" stroke-width="1" fill-rule="evenodd">
        <g transform="translate(-217.000000, -473.000000)" fill-rule="nonzero" stroke-width="0.5">
            <path d="M222.10079,479.075758 L222.10079,477.578788 C222.10079,475.605455 223.79615,474 225.87999,474 C227.96383,474 229.65919,475.605455 229.65919,477.578788 L229.65919,479.075758 L232.72031,479.075758 C232.89119,479.075758 233.03199,479.202424 233.04031,479.364242 L233.76031,493.682424 C233.76415,493.765455 233.73279,493.846061 233.67199,493.906061 C233.61119,493.966061 233.52735,494 233.44031,494 L218.32031,494 C218.23263,494 218.14879,493.966061 218.08863,493.906061 C218.02847,493.846061 217.99647,493.765455 218.00031,493.682424 L218.72031,479.364242 C218.72863,479.202424 218.86879,479.075758 219.04031,479.075758 L222.10079,479.075758 Z M222.74079,479.075758 L229.01919,479.075758 L229.01919,477.578788 C229.01919,475.94 227.61119,474.606061 225.87999,474.606061 C224.14879,474.606061 222.74079,475.94 222.74079,477.578788 L222.74079,479.075758 Z M222.10079,479.681818 L219.34495,479.681818 L218.65567,493.393939 L233.10431,493.393939 L232.41503,479.681818 L229.65919,479.681818 L229.65919,480.590909 C229.65919,480.758182 229.51647,480.893939 229.33919,480.893939 C229.16255,480.893939 229.01919,480.758182 229.01919,480.590909 L229.01919,479.681818 L222.74079,479.681818 L222.74079,480.590909 C222.74079,480.758182 222.59743,480.893939 222.42079,480.893939 C222.24415,480.893939 222.10079,480.758182 222.10079,480.590909 L222.10079,479.681818 Z"></path>
        </g>
    </g>
</svg>