<svg width="16px" height="14px" viewBox="0 0 16 14" version="1.1" xmlns="http://www.w3.org/2000/svg" xmlns:xlink="http://www.w3.org/1999/xlink">
    <g stroke-width="1" fill-rule="evenodd">
        <g transform="translate(-1092.000000, -79.000000)">
            <g transform="translate(62.000000, 56.000000)">
                <g transform="translate(948.000000, 14.000000)">
                    <g transform="translate(75.000000, 0.000000)">
                        <g transform="translate(7.000000, 9.000000)">
                            <g>
                                <path d="M5.98576147,13.9712163 C4.91694354,13.9712163 4.05049541,13.1301222 4.05049541,12.0925802 C4.05049541,11.0550381 4.91694354,10.213944 5.98576147,10.213944 C7.0545794,10.213944 7.92102752,11.0550381 7.92102752,12.0925802 C7.92102752,13.1301222 7.0545794,13.9712163 5.98576147,13.9712163 Z M12.1861284,10.1957048 C13.1139817,10.2843359 13.8481101,10.9969466 13.9394128,11.8976845 C14.0451009,12.9402748 13.2601468,13.8686209 12.1861284,13.9712163 C12.0588624,13.9833639 11.9306422,13.9833639 11.8033761,13.9712163 C10.7293578,13.8686209 9.94440367,12.9402748 10.0500917,11.8976845 C10.1557798,10.8550941 11.1121101,10.0931094 12.1861284,10.1957048 Z M15.8391193,3.04594402 C15.9506055,3.17119593 15.9926239,3.34115522 15.9518532,3.50192366 L14.5614679,8.90072265 C14.5009174,9.14563359 14.2760367,9.31876336 14.0165872,9.32022392 L4.18994495,9.32022392 C3.92220183,9.32410687 3.69119266,9.13854453 3.64506422,8.88248346 L1.89768807,1.09435115 L2.13162821e-14,1.09435115 L2.13162821e-14,5.32907052e-15 L2.34862385,5.32907052e-15 C2.60807339,0.00142493639 2.83299083,0.174590331 2.89350459,0.419501272 L3.43838532,2.82707379 L15.4069725,2.82707379 C15.5800734,2.82368957 15.7429725,2.90619338 15.8391193,3.04594402 Z"></path>
                            </g>
                        </g>
                    </g>
                </g>
            </g>
        </g>
    </g>
</svg>