<?xml version="1.0" encoding="UTF-8"?>
<svg width="10px" height="12px" viewBox="0 0 10 12" version="1.1" xmlns="http://www.w3.org/2000/svg" xmlns:xlink="http://www.w3.org/1999/xlink">
    <!-- Generator: Sketch 52.3 (67297) - http://www.bohemiancoding.com/sketch -->
    <title>Shape</title>
    <desc>Created with Sketch.</desc>
    <g id="Page-1" stroke="none" stroke-width="1" fill="none" fill-rule="evenodd">
        <g id="Оформление-заказа-оплата-3" transform="translate(-94.000000, -560.000000)" fill="#5F5F67" fill-rule="nonzero">
            <g id="lock" transform="translate(94.000000, 560.000000)">
                <path d="M9.72221354,4.5 L8.88888021,4.5 L8.88888021,3.49999219 C8.88888021,1.57007812 7.144375,0 5,0 C2.855625,0 1.11111979,1.57007812 1.11111979,3.49999219 L1.11111979,4.5 L0.277786458,4.5 C0.124244792,4.5 0,4.61182031 0,4.75000781 L0,11.0000156 C0,11.5515234 0.498307292,12 1.11111979,12 L8.88890625,12 C9.50169271,12 10,11.5515234 10,10.9999922 L10,4.75000781 C10,4.61182031 9.87575521,4.5 9.72221354,4.5 Z M5.83171875,9.72241406 C5.84039062,9.79296094 5.81518229,9.86376562 5.76255208,9.91675781 C5.70992187,9.96972656 5.63450521,10.0000078 5.55557292,10.0000078 L4.44445312,10.0000078 C4.36552083,10.0000078 4.29010417,9.96972656 4.23747396,9.91675781 C4.18484375,9.86378906 4.15960937,9.79298437 4.16830729,9.72241406 L4.34354167,8.30421094 C4.05898437,8.11792969 3.88890625,7.82325 3.88890625,7.5 C3.88890625,6.94849219 4.38721354,6.49999219 5.00002604,6.49999219 C5.61283854,6.49999219 6.11114583,6.94846875 6.11114583,7.5 C6.11114583,7.82325 5.94106771,8.11792969 5.65651042,8.30421094 L5.83171875,9.72241406 Z M7.22221354,4.5 L2.77778646,4.5 L2.77778646,3.49999219 C2.77778646,2.39721094 3.7746875,1.5 5,1.5 C6.2253125,1.5 7.22221354,2.39721094 7.22221354,3.49999219 L7.22221354,4.5 Z" id="Shape"></path>
            </g>
        </g>
    </g>
</svg>