<?xml version="1.0" encoding="UTF-8"?>
<svg width="62px" height="12px" viewBox="0 0 62 12" version="1.1" xmlns="http://www.w3.org/2000/svg" xmlns:xlink="http://www.w3.org/1999/xlink">
    <!-- Generator: Sketch 52.3 (67297) - http://www.bohemiancoding.com/sketch -->
    <title>Group 7</title>
    <desc>Created with Sketch.</desc>
    <g id="Page-1" stroke="none" stroke-width="1" fill="none" fill-rule="evenodd">
        <g id="Оформление-заказа-оплата-3" transform="translate(-111.000000, -369.000000)" fill="#FFFFFF">
            <g id="Group-8" transform="translate(94.000000, 348.000000)">
                <g id="Group-6" transform="translate(17.000000, 21.000000)">
                    <g id="Group-18">
                        <g id="Group-14">
                            <g id="Group-7">
                                <ellipse id="Oval-Copy-3" opacity="0.900000036" cx="6.15384615" cy="6" rx="6.15384615" ry="6"></ellipse>
                                <ellipse id="Oval-Copy-4" opacity="0.900000036" cx="13.8461538" cy="6" rx="6.15384615" ry="6"></ellipse>
                                <polygon id="Path" points="40.36475 0.59925 38.5415 11.29875 41.4575 11.29875 43.28225 0.59925"></polygon>
                                <path d="M36.0965,0.61125 L33.2405,7.908 L32.936,6.80625 C32.37275,5.47875 30.77375,3.57225 28.8965,2.37075 L31.508,11.2935 L34.5935,11.28825 L39.18575,0.609 L36.0965,0.61125 Z" id="Path"></path>
                                <path d="M31.829,1.377 C31.6595,0.72525 31.16825,0.531 30.5585,0.50775 L26.0375,0.50775 L26,0.72075 C29.51825,1.57425 31.84625,3.63075 32.81225,6.1035 L31.829,1.377 Z" id="Path"></path>
                                <path d="M49.19225,2.6505 C50.14625,2.6355 50.83775,2.844 51.37475,3.06 L51.638,3.18375 L52.0325,0.86475 C51.455,0.648 50.54975,0.4155 49.42025,0.4155 C46.53875,0.4155 44.50775,1.86675 44.492,3.9465 C44.47325,5.48325 45.93875,6.34125 47.04575,6.8535 C48.182,7.3785 48.563,7.71225 48.55775,8.181 C48.54875,8.89725 47.65175,9.22575 46.814,9.22575 C45.64625,9.22575 45.026,9.0645 44.06825,8.6655 L43.6925,8.4945 L43.28225,10.88925 C43.96475,11.1885 45.224,11.44575 46.53125,11.45925 C49.5965,11.45925 51.5885,10.02525 51.6095,7.803 C51.62225,6.58725 50.8445,5.6595 49.15925,4.89825 C48.13925,4.40175 47.51525,4.07175 47.52125,3.57075 C47.52125,3.126 48.05075,2.6505 49.19225,2.6505 Z" id="Path"></path>
                                <path d="M59.516,0.61125 L57.263,0.61125 C56.56325,0.61125 56.04275,0.80175 55.73525,1.49925 L51.4055,11.30475 L54.46775,11.30475 C54.46775,11.30475 54.96725,9.98625 55.0805,9.6975 C55.41575,9.6975 58.391,9.702 58.81475,9.702 C58.90175,10.0755 59.17025,11.30475 59.17025,11.30475 L61.8755,11.30475 L59.516,0.61125 Z M55.91975,7.5075 C56.15975,6.89325 57.0815,4.51725 57.0815,4.51725 C57.06575,4.5465 57.31925,3.8985 57.47,3.49575 L57.6665,4.41825 C57.6665,4.41825 58.22525,6.97275 58.34225,7.5075 L55.91975,7.5075 Z" id="Shape" fill-rule="nonzero"></path>
                            </g>
                        </g>
                    </g>
                </g>
            </g>
        </g>
    </g>
</svg>