<?xml version="1.0" encoding="UTF-8"?>
<svg width="32px" height="32px" viewBox="0 0 32 32" version="1.1" xmlns="http://www.w3.org/2000/svg" xmlns:xlink="http://www.w3.org/1999/xlink">
    <!-- Generator: Sketch 52.3 (67297) - http://www.bohemiancoding.com/sketch -->
    <title>Combined Shape</title>
    <desc>Created with Sketch.</desc>
    <g id="Page-1" stroke="none" stroke-width="1" fill="none" fill-rule="evenodd">
        <g id="Стартовая" transform="translate(-867.000000, -3712.000000)" fill="#d0271e">
            <g id="Group-42" transform="translate(62.000000, 3600.000000)">
                <g id="Group-43" transform="translate(757.000000, 77.000000)">
                    <g id="vk" transform="translate(48.000000, 35.000000)">
                        <path d="M16,32 C7.163444,32 1.77458048e-12,24.836556 1.77458048e-12,16 C1.77458048e-12,7.163444 7.163444,-4.26325641e-14 16,-4.26325641e-14 C24.836556,-4.26325641e-14 32,7.163444 32,16 C32,24.836556 24.836556,32 16,32 Z M15.3956291,23.0174338 L16.6514314,23.0174338 C16.6514314,23.0174338 17.0307676,22.9757924 17.2244287,22.7670149 C17.4026882,22.5753503 17.3969838,22.2154087 17.3969838,22.2154087 C17.3969838,22.2154087 17.3724553,20.5303576 18.1545153,20.2822204 C18.9254519,20.037791 19.9154337,21.910799 20.9647403,22.6309672 C21.7582088,23.1760134 22.3611537,23.0565083 22.3611537,23.0565083 L25.1668152,23.0174338 C25.1668152,23.0174338 26.6345324,22.9270206 25.9386074,21.77304 C25.8815644,21.6786338 25.5333167,20.9193911 23.8525438,19.3592641 C22.0933367,17.7264074 22.3289244,17.9905166 24.448073,15.1660309 C25.7386716,13.4458982 26.2546258,12.395736 26.0934793,11.9459517 C25.9397483,11.5175586 24.9905522,11.630789 24.9905522,11.630789 L21.8315091,11.6504688 C21.8315091,11.6504688 21.5973475,11.6185247 21.4236515,11.722343 C21.2539484,11.8241649 21.144711,12.0614639 21.144711,12.0614639 C21.144711,12.0614639 20.6447289,13.392563 19.9778958,14.524582 C18.5712147,16.9132589 18.0087704,17.039324 17.7788869,16.8910122 C17.2441085,16.5453314 17.3775892,15.5022995 17.3775892,14.7613106 C17.3775892,12.4465043 17.7286891,11.4813362 16.6939285,11.2314878 C16.3505294,11.1484901 16.0978288,11.0937288 15.2196513,11.0848872 C14.092481,11.0731933 13.1384363,11.0883097 12.5982388,11.3529894 C12.2388677,11.5289672 11.9616386,11.921138 12.1304859,11.94367 C12.3392634,11.9716211 12.8121502,12.0711612 13.0628543,12.4125637 C13.3865735,12.8529359 13.3751649,13.8420621 13.3751649,13.8420621 C13.3751649,13.8420621 13.5611252,16.5670077 12.9407822,16.9055581 C12.514956,17.1377233 11.9308353,16.6636957 10.6767443,14.4966309 C10.0341545,13.3865735 9.54900353,12.1595779 9.54900353,12.1595779 C9.54900353,12.1595779 9.45545296,11.9302649 9.28860209,11.8076224 C9.08609933,11.6590253 8.80316589,11.6116796 8.80316589,11.6116796 L5.80127634,11.6313594 C5.80127634,11.6313594 5.35063639,11.6439089 5.18521159,11.8398517 C5.03804057,12.0141182 5.17351777,12.3746301 5.17351777,12.3746301 C5.17351777,12.3746301 7.52369068,17.873008 10.1847481,20.6438732 C12.6247638,23.1842846 15.3956291,23.0174338 15.3956291,23.0174338 Z" id="Combined-Shape"></path>
                    </g>
                </g>
            </g>
        </g>
    </g>
</svg>