<?xml version="1.0" encoding="UTF-8"?>
<!DOCTYPE svg PUBLIC "-//W3C//DTD SVG 1.1//EN" "http://www.w3.org/Graphics/SVG/1.1/DTD/svg11.dtd">
<svg xmlns="http://www.w3.org/2000/svg" xmlns:xlink="http://www.w3.org/1999/xlink">
	<defs>
		<path id="check-b" d="M12.303 3c-1.886 2.041-4.056 4.38-6.016 6.5L3.691 7.192 2 9.008l3.594 3.237.843.755.774-.836C9.338 9.859 11.868 7.136 14 4.827L12.303 3z"/>
		<filter id="check-a" width="116.7%" height="120%" x="-8.3%" y="-5%" filterUnits="objectBoundingBox">
			<feOffset dy=".5" in="SourceAlpha" result="shadowOffsetOuter1"/>
			<feGaussianBlur in="shadowOffsetOuter1" result="shadowBlurOuter1" stdDeviation=".25"/>
			<feColorMatrix in="shadowBlurOuter1" values="0 0 0 0 0 0 0 0 0 0.256765814 0 0 0 0 0.543739371 0 0 0 0.521880661 0"/>
		</filter>
		<linearGradient id="point_1-a" x1="18.929%" x2="72.469%" y1="50%" y2="75.624%">
			<stop offset="0%" stop-color="#E64840"/>
			<stop offset="100%" stop-color="#CF3D35"/>
		</linearGradient>
		<linearGradient id="point_2-a" x1="18.929%" x2="72.469%" y1="50%" y2="75.624%">
			<stop offset="0%" stop-color="#F1554D"/>
			<stop offset="100%" stop-color="#CF3D35"/>
		</linearGradient>
	</defs>
<symbol id="arrow" viewBox="0 0 12 7">
	<path fill-rule="nonzero" stroke-width=".5" d="M9.987 1.174a.601.601 0 0 1 .834-.012c.234.22.24.584.012.812l-4.41 4.423a.6.6 0 0 1-.846 0l-4.41-4.423a.563.563 0 0 1 .012-.812.601.601 0 0 1 .834.012l3.987 4 3.987-4z"/>
</symbol>
<symbol id="arrow_2" viewBox="0 0 9 38">
	<path fill-rule="evenodd" d="M8.496 18.927a.996.996 0 0 1-.058.415L1.94 37.196a1 1 0 1 1-1.88-.684l6.401-17.585-6.4-17.585A1 1 0 0 1 1.94.658l6.498 17.854c.05.138.068.279.058.415z"/>
</symbol>
<symbol id="arrow_3" viewBox="0 0 11 6">
	<path fill-rule="nonzero" d="M9.886 5.812c.25.245.66.251.917.013a.598.598 0 0 0 .014-.874L5.965.188a.671.671 0 0 0-.93 0L.183 4.95a.598.598 0 0 0 .014.874.671.671 0 0 0 .917-.013L5.5 1.506l4.386 4.306z"/>
</symbol>
<symbol id="arrow_4" viewBox="0 0 20 15">
	<path fill-rule="evenodd" d="M13.476 14.774c-.282.301-.726.301-1.008 0a.795.795 0 0 1 0-1.064l5.11-5.452H.716C.323 8.258 0 7.925 0 7.506c0-.42.323-.764.716-.764h16.862l-5.11-5.441a.81.81 0 0 1 0-1.075c.282-.301.726-.301 1.008 0l6.32 6.742a.795.795 0 0 1 0 1.064l-6.32 6.742z"/>
</symbol>
<symbol id="arrow_5" viewBox="0 0 12 7">
	<path fill="#292930" fill-rule="nonzero" stroke="#292930" stroke-width=".5" d="M9.987 1.174a.601.601 0 0 1 .834-.012c.234.22.24.584.012.812l-4.41 4.423a.6.6 0 0 1-.846 0l-4.41-4.423a.563.563 0 0 1 .012-.812.601.601 0 0 1 .834.012l3.987 4 3.987-4z"/>
</symbol>
<symbol id="arrow_6" viewBox="0 0 15 12">
	<path fill="#8C8C99" fill-rule="evenodd" d="M5.872.18a.66.66 0 0 1 .907 0 .585.585 0 0 1 0 .852l-4.6 4.361h12.177c.354 0 .644.267.644.602 0 .336-.29.611-.644.611H2.18l4.599 4.353a.595.595 0 0 1 0 .86.66.66 0 0 1-.907 0L.184 6.427a.585.585 0 0 1 0-.852L5.872.18z"/>
</symbol>
<symbol id="check" viewBox="0 0 14 11">
	<g fill="none" fill-rule="nonzero" transform="translate(-1 -3)">
		<use fill="#000" filter="url(#check-a)" xlink:href="#check-b"/>
		<use fill="#FFF" xlink:href="#check-b"/>
	</g>
</symbol>
<symbol id="close" viewBox="0 0 10 10">
	<path fill="#7D7D7D" fill-rule="evenodd" d="M5.884 5l3.933-3.932a.625.625 0 1 0-.885-.885L5 4.116 1.068.183a.625.625 0 1 0-.885.885L4.116 5 .183 8.933a.625.625 0 1 0 .885.884L5 5.884l3.932 3.933a.623.623 0 0 0 .885 0 .625.625 0 0 0 0-.885L5.884 5z"/>
</symbol>
<symbol id="ico_1" viewBox="0 0 55 48">
	<g fill-rule="evenodd">
		<circle cx="15" cy="5" r="1"/>
		<path fill-rule="nonzero" d="M53.414 37.191c-1.411-1.476-3.645-2.49-6.828-2.884-5.924-.733-11.1-3.865-14.032-8.652-2.585-4.218-3.22-9.247-3.242-22.646C29.31 1.36 28.19 0 26.582 0H4.583a2.755 2.755 0 0 0-2.746 2.912c.595 11.074.31 19.893-1.611 22.324a.898.898 0 0 0-.226.606v.006a.986.986 0 0 0 .006.097c0 .006 0 .012.002.019l2.75 21.23c.06.459.448.803.909.803h9.166c.46 0 .85-.344.91-.804l1.092-8.433c5.286 4.43 8.246 6.879 8.606 7.099 2.382 1.45 5.578 2.198 8.66 2.138 9.797-.193 18.181-2.056 22.644-6.746a.927.927 0 0 0 .255-.638c0-.916-.405-2.187-1.586-3.422zM17.417 1.846v6.079l-2.75 2.769-2.75-2.77V1.847h5.5zm-5.389 44.305H4.471L2.13 28.072l1.761 1.486c2.675 2.254 5.353 4.509 7.858 6.613l.093.078.973.816.352.296-1.139 8.79zm20.037 0c-2.754.054-5.61-.615-7.675-1.872-.291-.177-4.759-3.892-11.375-9.449a6014.916 6014.916 0 0 1-10.53-8.867l-.354-.298c1.93-3.525 2.13-11.82 1.537-22.853a.915.915 0 0 1 .915-.966h5.5v6.461c0 .245.097.48.269.653l3.666 3.692c.358.36.939.36 1.297 0L18.98 8.96a.926.926 0 0 0 .269-.653v-6.46h7.332c.512 0 .896.466.897 1.165.021 13.754.683 18.993 3.514 23.613 3.237 5.28 8.91 8.716 15.37 9.514 2.787.345 4.63 1.183 5.73 2.333.482.503.785 1.032.951 1.554.03.095.054.181.072.257-4.1 3.988-11.96 5.69-21.05 5.868z"/>
	</g>
</symbol>
<symbol id="ico_2" viewBox="0 0 48 50">
	<g fill-rule="nonzero" stroke="#F1EDDE" stroke-width=".5">
		<path d="M46.743 13.421L37.329 1.473A1.225 1.225 0 0 0 36.364 1H11.645c-.38 0-.729.175-.965.473L1.267 13.42a1.204 1.204 0 0 0-.267.76v33.586C1 48.445 1.554 49 2.232 49h43.535c.678 0 1.232-.555 1.232-1.233V14.182a1.138 1.138 0 0 0-.256-.76zm-3.347-.267h-18.16V3.466H35.77l7.627 9.688zM12.241 3.466h10.532v9.688H4.613l7.628-9.688zM3.464 46.534V15.62h41.072v30.914H3.464z"/>
		<path d="M30.756 25.373l-8.832 8.545-3.67-3.55c-.516-.5-1.35-.5-1.867 0a1.247 1.247 0 0 0 0 1.807l4.603 4.453c.253.244.593.372.934.372.34 0 .67-.128.934-.372l9.755-9.437c.516-.5.516-1.308 0-1.807a1.327 1.327 0 0 0-1.857-.01z"/>
	</g>
</symbol>
<symbol id="ico_3" viewBox="0 0 60 47">
	<g fill-rule="evenodd">
		<path fill-rule="nonzero" d="M59.612 28.825c.413.333.51.927.225 1.374l-10.44 16.332a1.012 1.012 0 0 1-1.384.317l-6.297-3.892a1.045 1.045 0 0 1-.346-1.422l1.281-2.14c-2.441-1.06-8.12-3.872-11.014-8.135-1.497-2.205-4.194-3.988-6.575-5.56-1.098-.726-2.144-1.418-3.033-2.12a13.154 13.154 0 0 1-3.126 2.058c-6.62 3.114-14.536.175-17.645-6.55-3.11-6.726-.253-14.73 6.367-17.844C12.61-1.102 18.33-.013 22.18 3.54c.097-.045.2-.08.312-.093l9.613-1.095c.206-.023.415.018.598.117.188.102 4.63 2.528 8.242 5.437 3.231 2.602 8.769 13.95 10.375 17.334l1.852-.871c.35-.165.763-.115 1.066.13l5.374 4.326zM26.452 12.11c.162 1.56.056 3.143-.326 4.679 2.556.7 5.184 2.015 6.62 2.796 1.458.793 1.9.611 1.904.602.203-.2.144-1.522-.48-2.871-.596-1.288-1.99-4.303-2.95-4.66-.745-.276-3.05-.464-4.767-.546zm-7.033 6.94c.157-1.058.713-1.856 1.609-2.309l.08-.04c.828-.388 1.875-.454 3.012-.318a11.53 11.53 0 0 0-.697-7.72C20.793 2.97 14.094.485 8.493 3.119 2.89 5.754.472 12.527 3.104 18.22c2.63 5.69 9.329 8.176 14.93 5.542a11.139 11.139 0 0 0 2.473-1.591c-.821-.947-1.261-1.956-1.089-3.12zM48.22 44.56l9.399-14.704-4.15-3.341-2.2 1.034a1.02 1.02 0 0 1-1.357-.504C48.01 22.93 42.463 11.762 39.68 9.522c-2.966-2.388-6.634-4.503-7.658-5.078l-8.191.933a13.574 13.574 0 0 1 2.242 4.646c1.211.048 4.571.22 5.84.691 1.622.603 2.818 2.953 4.103 5.732.628 1.36 1.344 3.994.038 5.247-1.352 1.297-3.546.104-4.267-.288-4.37-2.376-8.429-3.528-9.842-2.813-.21.106-.436.282-.509.776-.198 1.34 2.309 2.998 4.733 4.6 2.54 1.679 5.42 3.581 7.146 6.125 3.302 4.865 11.098 7.801 11.177 7.83a1.044 1.044 0 0 1 .527 1.51l-1.376 2.299 4.576 2.828z"/>
		<path d="M11.988 15.946h3.15v1.098h-3.15v1.998H10.35v-1.998H9v-1.098h1.35v-1.332H9v-1.26h1.35V7h2.718c1.512 0 2.676.315 3.492.945.816.63 1.224 1.563 1.224 2.799 0 1.32-.42 2.295-1.26 2.925-.84.63-1.986.945-3.438.945h-1.098v1.332zm0-7.668v5.076h1.026c.996 0 1.755-.189 2.277-.567.522-.378.783-1.053.783-2.025 0-.876-.261-1.509-.783-1.899-.522-.39-1.269-.585-2.241-.585h-1.062z"/>
	</g>
</symbol>
<symbol id="ico_4" viewBox="0 0 58 38">
	<path fill-rule="nonzero" stroke="#F1EDDE" stroke-width="1.5" d="M57 20.896c0-3.071-2.524-5.57-5.626-5.57h-2.076L43.653 4.914H37.71V1H1v31.65h5.249A6.037 6.037 0 0 0 12.056 37c2.759 0 5.09-1.843 5.807-4.35h21.665A6.036 6.036 0 0 0 45.335 37c2.76 0 5.09-1.843 5.807-4.35H57V20.896zM41.69 8.163l3.884 7.163h-7.865V8.163h3.981zM12.056 33.752c-1.519 0-2.754-1.223-2.754-2.727 0-1.503 1.235-2.726 2.754-2.726s2.754 1.223 2.754 2.726c0 1.504-1.235 2.727-2.754 2.727zm0-8.701a6.037 6.037 0 0 0-5.807 4.35H4.28V4.248h30.147v25.153H17.863a6.036 6.036 0 0 0-5.807-4.35zm33.28 8.7c-1.52 0-2.755-1.222-2.755-2.726 0-1.503 1.235-2.726 2.754-2.726s2.754 1.223 2.754 2.726c0 1.504-1.235 2.727-2.754 2.727zm5.806-4.35a6.037 6.037 0 0 0-5.807-4.35 6.036 6.036 0 0 0-5.807 4.35H37.71V18.575h13.665c1.293 0 2.345 1.04 2.345 2.321v.906h-2.516v3.249h2.516v4.35h-2.577z"/>
</symbol>
<symbol id="insta" viewBox="0 0 32 32">
	<path fill="#d0271e" fill-rule="evenodd" d="M19.088 16a3.088 3.088 0 1 1-6.176 0 3.088 3.088 0 0 1 6.176 0zm4.119-5.452c.127.325.277.815.318 1.716.045.975.054 1.267.054 3.736 0 2.469-.01 2.76-.054 3.736-.041.901-.192 1.39-.318 1.716a3.061 3.061 0 0 1-1.755 1.755c-.325.127-.815.277-1.716.318-.975.045-1.267.054-3.736.054-2.469 0-2.76-.01-3.736-.054-.9-.04-1.39-.191-1.716-.318a2.862 2.862 0 0 1-1.063-.692 2.865 2.865 0 0 1-.692-1.063c-.126-.325-.277-.815-.318-1.716-.044-.975-.054-1.267-.054-3.736 0-2.469.01-2.76.054-3.736.041-.9.192-1.39.318-1.716.149-.402.385-.765.692-1.063a2.86 2.86 0 0 1 1.063-.692c.325-.126.815-.277 1.716-.318.975-.045 1.267-.054 3.736-.054 2.469 0 2.76.01 3.736.054.901.041 1.39.192 1.716.318.402.148.765.385 1.063.692.307.298.544.661.692 1.063zM16 20.747a4.747 4.747 0 1 0 0-9.494 4.747 4.747 0 0 0 0 9.494zm4.935-8.573a1.11 1.11 0 1 0 0-2.219 1.11 1.11 0 0 0 0 2.22zM16 0c8.835 0 16 7.165 16 16s-7.165 16-16 16S0 24.835 0 16 7.165 0 16 0zm9.132 19.788c.045-.98.055-1.293.055-3.788s-.01-2.808-.055-3.788c-.044-.978-.2-1.646-.427-2.23a4.502 4.502 0 0 0-1.06-1.627 4.504 4.504 0 0 0-1.627-1.06c-.584-.227-1.252-.382-2.23-.427-.98-.045-1.293-.056-3.788-.056s-2.808.011-3.788.056c-.978.045-1.646.2-2.23.427a4.5 4.5 0 0 0-1.627 1.06 4.5 4.5 0 0 0-1.06 1.627c-.227.584-.383 1.252-.427 2.23-.045.98-.056 1.293-.056 3.788s.011 2.808.056 3.788c.045.978.2 1.646.427 2.23.23.613.592 1.169 1.06 1.627.459.468 1.014.83 1.627 1.06.584.227 1.252.382 2.23.427.98.045 1.293.055 3.788.055s2.808-.01 3.788-.055c.978-.045 1.646-.2 2.23-.427a4.698 4.698 0 0 0 2.687-2.687c.227-.584.383-1.252.427-2.23z"/>
</symbol>
<symbol id="like" viewBox="0 0 18 16">
	<path fill-rule="evenodd" d="M9 16l-1.26-1.217c-4.68-4-7.74-6.696-7.74-10C0 2.087 2.16 0 4.95 0 6.48 0 8.01.696 9 1.826 9.99.696 11.52 0 13.05 0 15.84 0 18 2.087 18 4.783c0 3.304-3.06 6-7.74 10L9 16z"/>
</symbol>
<symbol id="logo" viewBox="0 0 168 35">
	<g fill="#FFF" fill-rule="evenodd">
		<path fill-rule="nonzero" d="M155.015 29.28l4.209-.302c.09.785.276 1.382.556 1.796.453.666 1.106.995 1.953.995.63 0 1.116-.169 1.46-.509.339-.341.509-.735.509-1.183 0-.425-.16-.808-.487-1.144-.326-.338-1.08-.655-2.265-.954-1.94-.501-3.323-1.163-4.15-1.994-.832-.83-1.248-1.887-1.248-3.173 0-.847.213-1.647.64-2.397.426-.75 1.065-1.34 1.922-1.772.857-.429 2.03-.643 3.519-.643 1.83 0 3.225.39 4.185 1.17.959.782 1.53 2.026 1.712 3.73l-4.168.279c-.11-.739-.343-1.279-.7-1.615-.353-.334-.843-.502-1.466-.502-.516 0-.903.123-1.163.376-.26.248-.39.555-.39.914 0 .26.107.494.32.704.21.219.703.418 1.486.605 1.933.479 3.315.965 4.152 1.455.836.49 1.446 1.095 1.826 1.822.38.723.573 1.535.573 2.435a5.787 5.787 0 0 1-.762 2.913 4.968 4.968 0 0 1-2.13 2.025c-.91.46-2.06.689-3.446.689-2.432 0-4.118-.536-5.054-1.616-.94-1.075-1.47-2.442-1.593-4.103zM98.746 31.6h2.252c.763 0 1.298-.157 1.608-.473.313-.317.469-.742.469-1.278 0-.496-.153-.895-.463-1.195-.31-.301-.848-.454-1.623-.454h-2.243v3.4zm0-6.8h1.767c.633 0 1.074-.15 1.326-.446.248-.3.37-.73.37-1.289 0-.522-.122-.93-.37-1.222-.252-.296-.683-.443-1.3-.443h-1.793v3.4zM94.418 18h8.127c1.355 0 2.395.387 3.117 1.158.727.771 1.09 1.726 1.09 2.862 0 .955-.259 1.774-.775 2.46-.347.454-.85.815-1.515 1.078 1.008.279 1.75.76 2.228 1.437.474.68.713 1.533.713 2.56 0 .839-.17 1.59-.507 2.26a4.075 4.075 0 0 1-1.39 1.587c-.363.24-.913.417-1.649.527-.978.146-1.625.221-1.946.221h-7.493V18zm19.045 8.934c0 1.662.27 2.852.813 3.579.543.723 1.286 1.087 2.22 1.087.962 0 1.707-.356 2.233-1.064.527-.712.793-1.986.793-3.823 0-1.55-.276-2.68-.826-3.395-.55-.712-1.296-1.068-2.24-1.068-.902 0-1.627.36-2.173 1.087-.547.723-.82 1.925-.82 3.597zm-4.329-.425c0-2.683.648-4.773 1.938-6.266 1.293-1.496 3.091-2.243 5.396-2.243 2.363 0 4.186.734 5.465 2.205 1.276 1.465 1.918 3.525 1.918 6.17 0 1.922-.282 3.5-.84 4.728-.559 1.229-1.366 2.185-2.42 2.87-1.059.686-2.37 1.027-3.948 1.027-1.6 0-2.926-.295-3.978-.884-1.048-.594-1.898-1.528-2.552-2.806-.651-1.28-.979-2.879-.979-4.8zm20.776.425c0 1.662.27 2.852.814 3.579.543.723 1.285 1.087 2.22 1.087.961 0 1.707-.356 2.234-1.064.526-.712.792-1.986.792-3.823 0-1.55-.276-2.68-.826-3.395-.55-.712-1.296-1.068-2.24-1.068-.901 0-1.627.36-2.174 1.087-.546.723-.82 1.925-.82 3.597zm-4.328-.425c0-2.683.649-4.773 1.938-6.266 1.293-1.496 3.091-2.243 5.396-2.243 2.364 0 4.185.734 5.465 2.205 1.276 1.465 1.918 3.525 1.918 6.17 0 1.922-.282 3.5-.84 4.728-.56 1.229-1.366 2.185-2.42 2.87-1.058.686-2.371 1.027-3.949 1.027-1.6 0-2.925-.295-3.976-.884-1.048-.594-1.898-1.528-2.553-2.806-.651-1.28-.979-2.879-.979-4.8zM141.164 18h12.985v3.99h-4.358v12.16h-4.272V21.99h-4.355V18zm-65.146 0h4.984l2.932 5.452L86.866 18h4.955l-5.648 9.386v6.764h-4.498v-6.764L76.018 18zM52 18h11.099v3.471h-6.59v2.82h5.626v3.26h-5.627v6.599H52V18zm13.514 0h4.491v12.172h7.004v3.978H65.514V18z"/>
		<text font-family="FiraSans-Medium, Fira Sans" font-size="13" font-weight="400" transform="translate(0 -5)">
			<tspan x="51" y="15">&#x421;&#x430;&#x43B;&#x43E;&#x43D;&#x44B; &#x43E;&#x431;&#x443;&#x432;&#x438;</tspan>
		</text>
		<path d="M11.893 27.734l-.041.054 2.213 2.779a24.61 24.61 0 0 1-3.488 1.531c5.16-1.337 9.647-1.547 13.09 0-.45-1.403-1.262-4.925 1.018-7.063 1.016-1.12 1.542-1.69 2.338-2.219.578-.383.807-1.356.807-1.356l-3.175.92.165-.97s2.952-.951 4.53-1.912c1.576-.96 1.573-1.774 1.573-1.774l-4.592 1.254.34-1.186s4.451-1.005 6.096-2.077c.881-.574 2.578-2.467 2.138-1.96-.44.506-7.884 2.504-7.884 2.504l.115-.68s4.824-1.35 6.741-2.236c1.917-.885 4.068-2.625 5.403-4.243 1.336-1.618 1.86-2.106 2.957-3.877 1.096-1.771.69-3.223.69-3.223-3.282 4.275-6.972 6.894-11.694 8.72-2.986 1.155-6.404 1.873-8.73 4.492-1.222 1.376-.913 3.454-.406 5.123.645 2.117-.963 4.895-3.779 7.334l-2.138-3.236c1.66-1.645 3.142-3.573 4.562-5.675.097-.12.08-.319-.04-.442-.118-.123-.292-.125-.39-.004-2.443 2.614-4.613 4.908-7.203 6.62-1.244.822-2.576 1.335-4.169 1.95-1.686.65-3.41.98-5.107 1.472-.717.207-1.502.423-2.179.827-.552.33-1.263.916-1.33 1.685-.045.52.063.744.491 1.252 1.626.182 3.648.345 6.376.228-2.235-1.361.087-2.66 2.201-3.447.88-.327 1.711-.718 2.501-1.165zM.332 33.549c-.208-.043-.364-.207-.326-.444.037-.237.227-.303.435-.26 8.528 1.483 15.162-2.815 22.623-.345.922.306.623 1.697-.472 1.379-8.443-2.448-14.024 1.367-22.26-.33zm14.232-7.653l2.319 2.911c-.396.287-.808.566-1.233.836l-1.962-3.07c.298-.217.59-.444.876-.677zm11.206-.958c.104-.015 2.576-2.433 2.576-2.433l2.948-.85s.095.636-1.092 1.452c-1.186.816-4.432 1.831-4.432 1.831zm2.88-4.02c.018-.113 1.112-1.18 2.268-1.425 1.12-.237 4.694-1.581 4.842-1.856.148-.276-.772 1.562-2.115 2.111-1.344.551-5.07 1.807-5.07 1.807l.074-.638zm3.541-4.146l-.648 1.628s3.772-1.323 5.5-2.75c1.163-.96 2.274-3.04 2.274-3.04l-3.331 2.113-3.795 2.05zm9.69-10.101S40.604 9.007 39 10.5c-1.074.998-3.019 2.452-3.019 2.452l-.118.897s3.585-2.33 4.346-3.313c1.299-1.676 1.67-3.865 1.67-3.865z"/>
	</g>
</symbol>
<symbol id="mmit_logo" viewBox="0 0 90 22">
	<g fill="none" fill-rule="evenodd">
		<path fill="#292930" d="M5.776 10.533c.067-.8-.067-1.6-.403-2.266-.336-.467-.873-.8-1.477-.667-.27 0-.538 0-.874.067l-.671.066v8.134H0v-9.8l1.813-.4c.74-.067 1.545-.134 2.284-.134.604 0 1.142.067 1.746.267.403.133.806.4 1.142.733.202-.133.336-.2.537-.333.269-.133.47-.2.74-.333.268-.067.604-.2.872-.267.336-.067.605-.067.94-.067.672 0 1.344.067 1.948.334.47.2.874.533 1.21.933.335.467.537.933.604 1.467.134.6.201 1.266.201 1.866V15.8h-2.35v-5.333a4.402 4.402 0 0 0-.403-2.267c-.336-.533-.874-.8-1.478-.733-.336 0-.739.066-1.075.2-.268.066-.537.2-.738.333.134.333.201.667.201 1 .067.4.067.8.067 1.133v5.6H5.776v-5.2z"/>
		<path fill="#292930" fill-rule="nonzero" d="M14.507 10.8c0-.8.135-1.6.403-2.333.27-.6.605-1.2 1.075-1.667.403-.467.94-.8 1.545-1a5.078 5.078 0 0 1 1.746-.333 4.366 4.366 0 0 1 3.291 1.266c.806.867 1.21 2.134 1.21 3.867v.867H17.06c0 .733.336 1.4.873 1.866.604.467 1.41.734 2.216.667.538 0 1.075-.067 1.545-.133.336-.067.739-.2 1.075-.334l.335 1.934c-.201.066-.335.133-.537.2l-.806.2a3.992 3.992 0 0 1-.94.133c-.336.067-.672.067-1.008.067a6.964 6.964 0 0 1-2.35-.4c-.605-.267-1.21-.6-1.612-1.067a5.11 5.11 0 0 1-.94-1.667 5.737 5.737 0 0 1-.404-2.133zm6.851-1c0-.333-.067-.6-.134-.933a1.586 1.586 0 0 0-.403-.734c-.202-.2-.403-.4-.672-.533a2.159 2.159 0 0 0-.94-.2c-.336 0-.672.067-.94.2-.269.133-.47.333-.672.533-.201.2-.336.467-.403.734a2.04 2.04 0 0 0-.201.866l4.365.067zM33.045 14.8c0 1.6-.403 2.8-1.21 3.533-.805.734-2.081 1.134-3.76 1.134-.605 0-1.21-.067-1.814-.134a7.128 7.128 0 0 1-1.612-.4l.403-2c.403.2.873.334 1.344.4.537.134 1.074.134 1.679.134.738.066 1.41-.134 2.015-.6.403-.467.671-1.067.604-1.734v-.4a3.903 3.903 0 0 1-.94.334 4.36 4.36 0 0 1-1.344.2c-.604 0-1.209-.067-1.813-.334-.537-.2-1.007-.533-1.41-.933s-.74-.933-.874-1.467c-.201-.666-.268-1.4-.268-2.066 0-.667.134-1.334.336-2a4.05 4.05 0 0 1 1.007-1.6c.47-.467 1.008-.8 1.612-1 .672-.267 1.41-.4 2.15-.4.738 0 1.477.066 2.149.2.671.133 1.276.266 1.746.4V14.8zm-6.582-4.267c-.067.8.201 1.534.671 2.2.47.467 1.075.667 1.68.667.335 0 .738-.067 1.074-.133.269-.067.537-.2.806-.334v-5.2c-.201-.066-.403-.066-.604-.133-.336-.067-.605-.067-.94-.067-.74-.066-1.478.267-1.949.867-.537.533-.738 1.333-.738 2.133zM37.68 5.467c.67 0 1.342.066 1.947.266.47.134.94.467 1.276.8.336.334.537.8.672 1.267.134.533.201 1.067.201 1.6v6.133c-.336.067-.94.2-1.679.267-.806.133-1.68.2-2.485.2a7.223 7.223 0 0 1-1.68-.2c-.47-.067-.872-.267-1.275-.533-.336-.267-.672-.6-.806-1a3.93 3.93 0 0 1-.336-1.534c0-.533.134-1 .336-1.466.201-.4.537-.734.94-1a3.344 3.344 0 0 1 1.343-.534 6.67 6.67 0 0 1 1.612-.2c.269 0 .538 0 .806.067.336.067.605.067.94.2v-.4c0-.267 0-.533-.067-.8s-.201-.467-.335-.667c-.202-.2-.403-.333-.672-.4-.336-.133-.672-.133-1.008-.133-.47 0-1.007.067-1.477.133a7.07 7.07 0 0 0-1.142.267l-.269-1.867A9.001 9.001 0 0 1 35.8 5.6c.604-.133 1.208-.133 1.88-.133zm.2 8.733c.538 0 1.075 0 1.68-.133v-2.6c-.202-.067-.403-.067-.538-.134h-.873c-.268 0-.537 0-.806.067-.268.067-.47.133-.739.2-.201.067-.403.267-.537.4-.134.2-.201.467-.201.733-.067.467.134.867.537 1.134.47.266.94.333 1.478.333z"/>
		<path fill="#E64840" d="M48.493 10.533c.067-.8-.068-1.6-.403-2.266-.336-.467-.874-.8-1.478-.734-.269 0-.537 0-.873.067l-.672.067V15.8h-2.35V6.067l1.813-.4c.739-.134 1.545-.2 2.35-.2.605 0 1.142.066 1.747.266.403.2.739.467 1.074.8.202-.133.336-.2.538-.333.201-.133.47-.2.671-.333.27-.067.605-.2.874-.267.335-.067.604-.067.94-.067.672 0 1.343.067 1.948.334.47.2.873.533 1.209.933.335.467.537.933.604 1.467.134.6.202 1.266.202 1.866V15.8h-2.351v-5.333a4.402 4.402 0 0 0-.403-2.267c-.336-.533-.873-.8-1.478-.733-.336 0-.739.066-1.074.2-.27.066-.538.2-.74.333.135.333.202.667.202 1 .067.4.067.8.067 1.133v5.6h-2.35l-.067-5.2zM60.448 3.133c0 .4-.135.8-.403 1.067-.269.267-.605.4-1.008.4s-.738-.133-1.007-.4c-.269-.267-.47-.667-.403-1.067 0-.4.134-.8.403-1.066.269-.267.671-.4 1.007-.4.403 0 .74.133 1.008.4.268.333.403.666.403 1.066zM57.828 5.733h2.351V15.8h-2.351zM67.03 7.8c-.202-.067-.403-.133-.605-.133-.403-.067-.806-.134-1.209-.134-.268 0-.537 0-.806.067-.201 0-.403.067-.604.133V15.8h-2.35V6.2c.537-.2 1.141-.333 1.678-.467.74-.133 1.478-.2 2.284-.2h.537l.605.067c.201 0 .403.067.604.133.202.067.336.067.47.134L67.03 7.8z"/>
		<path fill="#FFF" fill-rule="nonzero" d="M74.82 4.267c0 .4.202.8.538 1a.699.699 0 0 1 .336.6h.537c0-.267.135-.467.336-.6.537-.334.739-1 .403-1.534-.336-.533-1.007-.733-1.545-.4-.403.134-.604.534-.604.934zm.538 0a.6.6 0 0 1 .605-.6.6.6 0 1 1 0 1.2.6.6 0 0 1-.605-.6z"/>
		<path fill="#292930" fill-rule="nonzero" d="M79.12 0c-5.978 0-10.881 4.8-10.881 10.8 0 3.467 1.679 6.733 4.5 8.733l2.888-2.866V5.333h.537v11.534L73.21 19.8c5.037 3.2 11.754 1.8 14.978-3.2C91.41 11.6 90 4.933 84.963 1.733A10.697 10.697 0 0 0 79.119 0zm-3.963 15.667h-.538V6.8h.538v8.867zm2.082 0H76.7V6.8h.538v8.867zm6.582 0c-.47.133-.94.2-1.41.2-.538 0-1.008-.067-1.478-.267-.403-.133-.672-.333-.94-.667-.27-.333-.403-.733-.538-1.133-.134-.533-.134-1.067-.134-1.533V4.333l1.612-.266V6.8h3.358v1.333h-3.358v4.134c0 .4 0 .733.134 1.066.067.267.134.467.336.667.134.133.336.267.537.333.202.067.47.134.74.067.402 0 .805-.067 1.14-.133l.605-.267.336 1.333c-.403.2-.671.267-.94.334z"/>
	</g>
</symbol>
<symbol id="pas_1" viewBox="0 0 18 15">
	<path fill="#808086" fill-rule="evenodd" d="M13.283 12.961c-1.312.737-2.773 1.105-4.384 1.105-3.92 0-6.886-2.181-8.899-6.545.903-1.958 1.999-3.477 3.286-4.557L1.48 1.157 2.636 0l13.885 13.885-1.157 1.157-2.081-2.081zm-2.027-2.027l-1.198-1.198a2.455 2.455 0 0 1-3.274-3.274L5.588 5.266a4.09 4.09 0 0 0 5.67 5.67zm1.675-2.276A4.09 4.09 0 0 0 7.863 3.59L5.78 1.507c.962-.354 2.002-.531 3.119-.531 3.92 0 6.953 2.181 9.101 6.545-.732 1.487-1.567 2.721-2.505 3.702l-2.564-2.565zM9.366 5.094l2.061 2.061a2.456 2.456 0 0 0-2.061-2.061z"/>
</symbol>
<symbol id="pas_2" viewBox="0 0 18 14">
	<path fill="#808086" fill-rule="evenodd" d="M18 6.545c-2.148 4.364-5.181 6.546-9.101 6.546-3.92 0-6.886-2.182-8.899-6.546C2.013 2.182 4.98 0 8.899 0c3.92 0 6.953 2.182 9.101 6.545zm-9 4.091a4.09 4.09 0 1 0 0-8.181 4.09 4.09 0 0 0 0 8.181zM9 9a2.455 2.455 0 1 1 0-4.91A2.455 2.455 0 0 1 9 9z"/>
</symbol>
<symbol id="point_1" viewBox="0 0 24 36">
	<g fill="none" fill-rule="evenodd">
		<path fill="url(#point_1-a)" d="M0 12h24c0 5.333-4 13.333-12 24C4 25.333 0 17.333 0 12z"/>
		<circle cx="12" cy="12" r="12" fill="#E64840"/>
		<path fill="#FFF" fill-rule="nonzero" d="M8 6h9v2.794h-5.344v2.27h4.562v2.624h-4.562V19H8z"/>
	</g>
</symbol>
<symbol id="point_2" viewBox="0 0 24 36">
	<g fill="none" fill-rule="evenodd">
		<path fill="url(#point_2-a)" d="M0 12h24c0 5.333-4 13.333-12 24C4 25.333 0 17.333 0 12z"/>
		<circle cx="12" cy="12" r="12" fill="#F1554D"/>
		<path fill="#FFF" fill-rule="nonzero" d="M8 6h9v2.794h-5.344v2.27h4.562v2.624h-4.562V19H8z"/>
	</g>
</symbol>
<symbol id="sale" viewBox="0 0 44 44">
	<g fill="none" fill-rule="evenodd">
		<path fill="#FC5252" d="M22.667 42.698l-1.315 1.01a1.408 1.408 0 0 1-1.868-.136L18.33 42.38a1.408 1.408 0 0 0-1.52-.333l-1.546.599a1.408 1.408 0 0 1-1.755-.658l-.772-1.468c-.263-.5-.8-.795-1.363-.748l-1.653.14a1.408 1.408 0 0 1-1.498-1.126l-.327-1.626a1.408 1.408 0 0 0-1.098-1.102l-1.625-.332a1.408 1.408 0 0 1-1.12-1.502l.144-1.653a1.408 1.408 0 0 0-.744-1.366l-1.465-.777a1.408 1.408 0 0 1-.652-1.757l.604-1.545a1.409 1.409 0 0 0-.328-1.52L.425 24.448a1.409 1.409 0 0 1-.13-1.87l1.013-1.311c.346-.448.39-1.059.114-1.552L.609 18.27a1.409 1.409 0 0 1 .401-1.83l1.343-.973c.458-.332.673-.906.546-1.457l-.373-1.616a1.408 1.408 0 0 1 .9-1.644l1.563-.555c.533-.19.901-.68.934-1.244l.098-1.656a1.408 1.408 0 0 1 1.327-1.323l1.656-.092a1.408 1.408 0 0 0 1.247-.93l.56-1.562a1.408 1.408 0 0 1 1.646-.895l1.614.378a1.408 1.408 0 0 0 1.458-.542l.978-1.34a1.408 1.408 0 0 1 1.831-.395l1.443.817a1.408 1.408 0 0 0 1.552-.108l1.315-1.01a1.408 1.408 0 0 1 1.868.136L25.67 1.62c.394.406.992.537 1.52.333l1.546-.599a1.408 1.408 0 0 1 1.755.658l.772 1.468c.263.5.8.795 1.363.748l1.653-.14a1.408 1.408 0 0 1 1.498 1.126l.327 1.626c.112.555.544.989 1.098 1.102l1.625.332c.7.144 1.182.79 1.12 1.502l-.144 1.653c-.049.563.244 1.101.744 1.366l1.465.777c.632.335.912 1.09.652 1.757l-.604 1.545a1.409 1.409 0 0 0 .328 1.52l1.187 1.159c.512.5.568 1.303.13 1.87l-1.013 1.311a1.409 1.409 0 0 0-.114 1.552l.813 1.446c.35.623.178 1.41-.401 1.83l-1.343.973a1.408 1.408 0 0 0-.546 1.457l.373 1.616a1.408 1.408 0 0 1-.9 1.644l-1.563.555c-.533.19-.901.68-.934 1.244l-.098 1.656a1.408 1.408 0 0 1-1.327 1.323l-1.656.092a1.408 1.408 0 0 0-1.247.93l-.56 1.562a1.408 1.408 0 0 1-1.646.895l-1.614-.378a1.408 1.408 0 0 0-1.458.542l-.978 1.34a1.408 1.408 0 0 1-1.831.395l-1.443-.817a1.408 1.408 0 0 0-1.552.108z"/>
		<text fill="#FFF" font-family="FiraSans-Bold, Fira Sans" font-size="14" font-weight="bold" transform="rotate(-10 22 21)">
			<tspan x="5" y="28">-30%</tspan>
		</text>
	</g>
</symbol>
<symbol id="sale_2" viewBox="0 0 44 44">
	<g fill="none" fill-rule="evenodd">
		<path fill="#FC5252" d="M22.667 42.698l-1.315 1.01a1.408 1.408 0 0 1-1.868-.136L18.33 42.38a1.408 1.408 0 0 0-1.52-.333l-1.546.599a1.408 1.408 0 0 1-1.755-.658l-.772-1.468c-.263-.5-.8-.795-1.363-.748l-1.653.14a1.408 1.408 0 0 1-1.498-1.126l-.327-1.626a1.408 1.408 0 0 0-1.098-1.102l-1.625-.332a1.408 1.408 0 0 1-1.12-1.502l.144-1.653a1.408 1.408 0 0 0-.744-1.366l-1.465-.777a1.408 1.408 0 0 1-.652-1.757l.604-1.545a1.409 1.409 0 0 0-.328-1.52L.425 24.448a1.409 1.409 0 0 1-.13-1.87l1.013-1.311c.346-.448.39-1.059.114-1.552L.609 18.27a1.409 1.409 0 0 1 .401-1.83l1.343-.973c.458-.332.673-.906.546-1.457l-.373-1.616a1.408 1.408 0 0 1 .9-1.644l1.563-.555c.533-.19.901-.68.934-1.244l.098-1.656a1.408 1.408 0 0 1 1.327-1.323l1.656-.092a1.408 1.408 0 0 0 1.247-.93l.56-1.562a1.408 1.408 0 0 1 1.646-.895l1.614.378a1.408 1.408 0 0 0 1.458-.542l.978-1.34a1.408 1.408 0 0 1 1.831-.395l1.443.817a1.408 1.408 0 0 0 1.552-.108l1.315-1.01a1.408 1.408 0 0 1 1.868.136L25.67 1.62c.394.406.992.537 1.52.333l1.546-.599a1.408 1.408 0 0 1 1.755.658l.772 1.468c.263.5.8.795 1.363.748l1.653-.14a1.408 1.408 0 0 1 1.498 1.126l.327 1.626c.112.555.544.989 1.098 1.102l1.625.332c.7.144 1.182.79 1.12 1.502l-.144 1.653c-.049.563.244 1.101.744 1.366l1.465.777c.632.335.912 1.09.652 1.757l-.604 1.545a1.409 1.409 0 0 0 .328 1.52l1.187 1.159c.512.5.568 1.303.13 1.87l-1.013 1.311a1.409 1.409 0 0 0-.114 1.552l.813 1.446c.35.623.178 1.41-.401 1.83l-1.343.973a1.408 1.408 0 0 0-.546 1.457l.373 1.616a1.408 1.408 0 0 1-.9 1.644l-1.563.555c-.533.19-.901.68-.934 1.244l-.098 1.656a1.408 1.408 0 0 1-1.327 1.323l-1.656.092a1.408 1.408 0 0 0-1.247.93l-.56 1.562a1.408 1.408 0 0 1-1.646.895l-1.614-.378a1.408 1.408 0 0 0-1.458.542l-.978 1.34a1.408 1.408 0 0 1-1.831.395l-1.443-.817a1.408 1.408 0 0 0-1.552.108z"/>
		<text fill="#FFF" font-family="FiraSans-Bold, Fira Sans" font-size="14" font-weight="bold" transform="rotate(-10 22 21)">
			<tspan x="5" y="28">-20%</tspan>
		</text>
	</g>
</symbol>
<symbol id="sale_3" viewBox="0 0 44 44">
	<g fill="none" fill-rule="evenodd">
		<path fill="#FC5252" d="M22.667 42.698l-1.315 1.01a1.408 1.408 0 0 1-1.868-.136L18.33 42.38a1.408 1.408 0 0 0-1.52-.333l-1.546.599a1.408 1.408 0 0 1-1.755-.658l-.772-1.468c-.263-.5-.8-.795-1.363-.748l-1.653.14a1.408 1.408 0 0 1-1.498-1.126l-.327-1.626a1.408 1.408 0 0 0-1.098-1.102l-1.625-.332a1.408 1.408 0 0 1-1.12-1.502l.144-1.653a1.408 1.408 0 0 0-.744-1.366l-1.465-.777a1.408 1.408 0 0 1-.652-1.757l.604-1.545a1.409 1.409 0 0 0-.328-1.52L.425 24.448a1.409 1.409 0 0 1-.13-1.87l1.013-1.311c.346-.448.39-1.059.114-1.552L.609 18.27a1.409 1.409 0 0 1 .401-1.83l1.343-.973c.458-.332.673-.906.546-1.457l-.373-1.616a1.408 1.408 0 0 1 .9-1.644l1.563-.555c.533-.19.901-.68.934-1.244l.098-1.656a1.408 1.408 0 0 1 1.327-1.323l1.656-.092a1.408 1.408 0 0 0 1.247-.93l.56-1.562a1.408 1.408 0 0 1 1.646-.895l1.614.378a1.408 1.408 0 0 0 1.458-.542l.978-1.34a1.408 1.408 0 0 1 1.831-.395l1.443.817a1.408 1.408 0 0 0 1.552-.108l1.315-1.01a1.408 1.408 0 0 1 1.868.136L25.67 1.62c.394.406.992.537 1.52.333l1.546-.599a1.408 1.408 0 0 1 1.755.658l.772 1.468c.263.5.8.795 1.363.748l1.653-.14a1.408 1.408 0 0 1 1.498 1.126l.327 1.626c.112.555.544.989 1.098 1.102l1.625.332c.7.144 1.182.79 1.12 1.502l-.144 1.653c-.049.563.244 1.101.744 1.366l1.465.777c.632.335.912 1.09.652 1.757l-.604 1.545a1.409 1.409 0 0 0 .328 1.52l1.187 1.159c.512.5.568 1.303.13 1.87l-1.013 1.311a1.409 1.409 0 0 0-.114 1.552l.813 1.446c.35.623.178 1.41-.401 1.83l-1.343.973a1.408 1.408 0 0 0-.546 1.457l.373 1.616a1.408 1.408 0 0 1-.9 1.644l-1.563.555c-.533.19-.901.68-.934 1.244l-.098 1.656a1.408 1.408 0 0 1-1.327 1.323l-1.656.092a1.408 1.408 0 0 0-1.247.93l-.56 1.562a1.408 1.408 0 0 1-1.646.895l-1.614-.378a1.408 1.408 0 0 0-1.458.542l-.978 1.34a1.408 1.408 0 0 1-1.831.395l-1.443-.817a1.408 1.408 0 0 0-1.552.108z"/>
		<text fill="#FFF" font-family="FiraSans-Bold, Fira Sans" font-size="14" font-weight="bold" transform="rotate(-10 22 21)">
			<tspan x="5" y="28">-40%</tspan>
		</text>
	</g>
</symbol>
<symbol id="search" viewBox="0 0 20 20">
	<path fill-rule="nonzero" d="M19.755 18.58l-4.808-4.809A8.431 8.431 0 0 0 8.429 0 8.428 8.428 0 0 0 0 8.429a8.428 8.428 0 0 0 8.429 8.428 8.384 8.384 0 0 0 5.338-1.906l4.809 4.804a.833.833 0 0 0 1.18-1.175zM8.462 15.385a6.929 6.929 0 0 1-6.924-6.921c0-3.817 3.104-6.926 6.924-6.926 3.815 0 6.923 3.11 6.923 6.926 0 3.816-3.108 6.92-6.923 6.92z"/>
</symbol>
<symbol id="search_2" viewBox="0 0 14 14">
	<path fill="#292930" fill-rule="nonzero" stroke="#292930" stroke-width=".5" d="M12.853 12.148L9.968 9.263A5.059 5.059 0 0 0 6.057 1 5.057 5.057 0 1 0 9.26 9.97l2.885 2.883a.5.5 0 0 0 .708-.705zM6.077 10.23a4.157 4.157 0 0 1-4.154-4.153 4.16 4.16 0 0 1 4.154-4.155 4.161 4.161 0 0 1 4.154 4.155 4.159 4.159 0 0 1-4.154 4.153z" opacity=".8"/>
</symbol>
<symbol id="shop" viewBox="0 0 16 14">
	<path fill-rule="evenodd" d="M5.986 13.971c-1.07 0-1.936-.84-1.936-1.878 0-1.038.867-1.88 1.936-1.88s1.935.842 1.935 1.88c0 1.037-.866 1.878-1.935 1.878zm6.2-3.775c.928.088 1.662.8 1.753 1.702.106 1.042-.679 1.97-1.753 2.073a2.015 2.015 0 0 1-.383 0c-1.074-.102-1.859-1.03-1.753-2.073.106-1.043 1.062-1.805 2.136-1.702zm3.653-7.15a.5.5 0 0 1 .113.456L14.562 8.9a.56.56 0 0 1-.545.42H4.19a.54.54 0 0 1-.545-.439L1.898 1.094H0V0h2.349a.56.56 0 0 1 .545.42l.544 2.407h11.969a.512.512 0 0 1 .432.219z"/>
</symbol>
<symbol id="user" viewBox="0 0 10 12">
	<path d="M5 6a3 3 0 1 1 0-6 3 3 0 0 1 0 6zm0 1a5 5 0 0 1 5 5H0a5 5 0 0 1 5-5z"/>
</symbol>
<symbol id="vk" viewBox="0 0 32 32">
	<path fill="#d0271e" fill-rule="evenodd" d="M16 32C7.163 32 0 24.837 0 16S7.163 0 16 0s16 7.163 16 16-7.163 16-16 16zm-.604-8.983h1.255s.38-.041.573-.25c.179-.192.173-.552.173-.552s-.025-1.685.758-1.933c.77-.244 1.76 1.629 2.81 2.349.793.545 1.396.426 1.396.426l2.806-.04s1.468-.09.772-1.244c-.057-.094-.406-.854-2.086-2.414-1.76-1.633-1.524-1.368.595-4.193 1.29-1.72 1.807-2.77 1.645-3.22-.153-.428-1.102-.315-1.102-.315l-3.16.02s-.234-.032-.407.071c-.17.102-.28.34-.28.34s-.5 1.33-1.166 2.463c-1.407 2.388-1.97 2.514-2.2 2.366-.534-.346-.4-1.389-.4-2.13 0-2.314.35-3.28-.684-3.53-.343-.083-.596-.137-1.474-.146-1.128-.012-2.082.003-2.622.268-.36.176-.636.568-.468.59.21.029.682.128.933.47.324.44.312 1.43.312 1.43s.186 2.724-.434 3.063c-.426.232-1.01-.242-2.264-2.41a20.145 20.145 0 0 1-1.128-2.336s-.094-.23-.26-.352c-.203-.149-.486-.196-.486-.196l-3.002.02s-.45.012-.616.208c-.147.174-.011.535-.011.535s2.35 5.498 5.01 8.269c2.44 2.54 5.212 2.373 5.212 2.373z"/>
</symbol>
</svg>